**ABCDEFGHIJKLMNOPQRSTUVWXYZabcdefghijklmnopqrstuvwxyz**************************
**PARASOLID !"#$%&'()*+,-./:;<=>?@[\]^_`{|}~0123456789**************************
**PART1;
MC=AMD64;
MC_MODEL=Intel64 Family 6 Model 158 Stepping 10, GenuineIntel;
MC_ID=unknown;
OS=Windows_NT;
OS_RELEASE=unknown;
FRU=Parasolid Version 28.0, build 209,  1-25-2016;
APPL=SOLIDWORKS 2016-2016095;
SITE=;
USER=unknown;
FORMAT=text;
GUISE=transmit;
KEY=파트3;
FILE=파트3.x_t;
DATE=Mon Oct 23 17:30:07 2023;
**PART2;
SCH=SCH_2800209_28002;
USFLD_SIZE=0;
**PART3;
**END_OF_HEADER*****************************************************************
T51 : TRANSMIT FILE created by modeller version 280020923 SCH_2800209_28002_1300
6200 0 12 30 CCCCCCCCCCCCCDI5 owner1040 0 CCCCCCCCCA13 boundary_mesh1006 0 A16 i
ndex_map_offset0 0 1 dA9 index_map82 0 A17 node_id_index_map82 0 A20 schema_embe
dding_map82 0 A5 child12 0 A14 lowest_node_id0 0 1 dZ1 186 0 2 0 0 0 0 1e3 1e-8
 0 3 0 1 0 1 1 4 5 6 7 8 9 10 0 0 0 0 0 0 0 70 11 CI9 list_type0 0 1 uI10 notran
smit0 0 1 lCCCDCCDI12 finger_index0 0 1 dI12 finger_block1012 0 CZ2 0 4 T1 0 0 2
 20 1 11 11 13 255 4 114 0 1 0 12 0 0 13 0 51 255 5 108 0 12 14 0 0 +0 0 .01 0 0
 -1 .01 -1 0 0 30 255 6 113 0 9 15 0 0 +.01 0 .01 0 0 -1 29 255 7 84 0 16 17 0 0
 .01 0 19 8 CCCCCCCA5 owner12 0 Z8 34 0 1 13 0 18 V0 16 255 9 93 0 ?19 0 20 6 0
 0 1 18 255 10 31 0 21 0 22 23 ?1 17 255 21 0 24 25 26 10 27 28 0 29 +18 22 28 0
 26 10 30 31 ?1 29 23 33 0 10 31 32 0 .01 .01 29 31 30 0 22 33 23 0 .05 .01 29 3
2 88 0 34 23 35 .01 0 0 18 34 77 0 36 37 0 32 ?1 29 35 87 0 37 32 38 .1 -1137163
84458828e-32 0 18 37 76 0 39 40 34 35 ?1 29 38 86 0 40 35 17 .1 .05 0 18 40 75 0
 41 42 37 38 ?1 29 17 85 0 42 38 7 0 .05 0 18 42 74 0 43 16 40 17 ?1 17 43 0 44
 45 46 42 47 48 0 49 +18 16 73 0 50 51 42 7 ?1 17 50 0 52 29 49 16 53 54 0 55 +1
8 51 19 0 56 57 16 58 ?1 17 56 0 59 19 60 51 61 62 0 25 -18 57 22 0 61 30 51 63
 ?1 29 58 21 0 51 0 63 .01 0 .01 29 63 24 0 57 58 33 .1 -113716384458828e-32 .01
 29 33 27 0 30 63 31 .1 .05 .01 18 30 25 0 64 22 57 33 ?1 17 64 0 24 26 61 30 65
 66 0 67 +15 255 24 3 0 25 68 0 17 26 0 24 21 64 22 69 70 0 45 +17 61 0 24 64 25
 57 56 62 0 60 +17 65 0 71 72 67 57 64 66 0 0 -16 66 10 0 ?64 70 62 73 0 0 1 17
 67 0 71 65 41 30 46 74 0 69 -15 71 98 0 41 75 0 17 41 0 71 67 72 40 76 77 0 46
 +17 46 0 44 43 69 40 67 74 0 47 +16 74 91 0 ?46 20 78 79 0 0 1 17 69 0 44 46 45
 30 26 70 0 0 -15 44 96 0 43 80 0 17 45 0 44 69 43 22 49 78 0 27 -16 70 13 0 ?26
 28 66 81 0 0 1 16 28 16 0 ?21 82 70 83 0 0 1 30 81 14 0 70 73 83 0 +0 .05 .01 -
1 0 0 30 73 11 0 66 84 81 0 +.1 .05 .01 0 1 0 30 83 17 0 28 81 85 0 +0 .01 .01 0
 -1 0 31 255 85 83 0 86 83 87 0 +0 0 0 0 0 -1 1 0 0 .01 16 86 69 0 ?88 89 0 85 0
 0 1 30 87 82 0 89 85 90 0 +.1 -113716384458828e-32 0 1 -1263515382875868e-32 0
 16 89 65 0 ?39 77 86 87 0 0 1 30 90 81 0 77 87 91 0 +.1 .05 0 0 1 0 16 77 61 0
 ?41 48 89 90 0 0 1 30 91 80 0 48 90 92 0 +0 .05 0 -1 0 0 16 48 57 0 ?43 54 77 9
1 0 0 1 30 92 79 0 54 91 93 0 +0 .01 0 0 -1 0 16 54 53 0 ?50 94 48 92 0 0 1 30 9
3 109 0 82 92 95 0 +0 .01 .01 0 0 -1 16 82 89 0 ?55 78 28 93 0 0 1 30 95 110 0 7
8 93 79 0 +0 .05 .01 0 0 -1 16 78 90 0 ?49 74 82 95 0 0 1 30 79 111 0 74 95 15 0
 +.1 .05 .01 0 0 -1 30 15 112 0 20 79 6 0 +.1 -113716384458828e-32 .01 0 0 -1 16
 20 92 0 ?72 9 74 15 0 0 1 17 72 0 71 41 65 37 60 20 0 76 +17 60 0 59 56 39 57 7
2 20 0 65 -17 76 0 96 36 47 37 41 77 0 0 -15 96 52 0 97 98 0 17 36 0 96 97 76 34
 39 89 0 19 -17 47 0 96 76 53 40 43 48 0 0 -17 53 0 96 47 97 42 50 54 0 0 -17 97
 0 96 53 36 16 88 86 0 0 -17 88 0 99 100 55 34 97 86 0 0 +15 99 102 0 88 12 0 17
 100 0 99 101 88 51 19 9 0 0 -17 55 0 99 88 101 16 29 82 0 97 +17 101 0 99 55 10
0 10 25 94 0 0 -17 29 0 52 27 50 10 55 82 0 101 -15 52 94 0 50 102 0 17 27 0 52
 49 29 22 21 28 0 0 -17 49 0 52 50 27 42 45 78 0 53 +14 255 102 95 103 ?68 80 52
 4 104 -0 0 68 80 18 81 255 1 103 180 105 102 106 0 0 107 108 14 68 1 107 ?98 10
2 24 4 109 +0 0 98 102 18 14 80 97 110 ?102 75 44 4 111 -0 0 102 75 18 50 255 10
4 104 0 102 112 111 0 +0 .01 .01 1 0 0 0 0 -1 13 18 35 0 0 0 0 0 0 8 12 14 12 10
3 113 ?114 0 99 4 5 -0 0 114 0 18 81 1 113 183 105 12 115 0 110 116 117 14 114 1
01 116 ?75 12 59 4 14 -0 0 75 12 18 81 1 116 184 105 114 118 0 113 119 120 14 75
 99 119 ?80 114 71 4 121 -0 0 80 114 18 15 59 100 0 39 114 0 50 14 107 0 114 121
 5 0 +.1 -113716384458828e-32 .01 1263515382875868e-32 1 0 -1 1263515382875868e-
32 0 50 121 106 0 75 111 14 0 +.1 .05 .01 -1 0 0 0 0 1 50 111 105 0 80 104 121 0
 +0 .05 .01 0 -1 0 0 0 -1 17 39 0 59 60 19 37 36 89 0 72 +17 19 0 59 39 56 34 10
0 9 0 88 +81 1 119 185 105 75 122 0 116 123 124 80 255 1 105 125 126 9000 1 1 1
 1 1 1 1 1 0 FFFFTFTFFFFFFF1 81 1 122 159 127 75 0 119 118 128 129 81 1 123 186
 105 98 130 0 119 0 131 82 255 1 124 182255741 14 98 51 123 ?0 68 96 4 112 -0 0
 0 68 18 81 1 130 163 127 98 0 123 132 0 133 82 1 131 180617341 80 1 127 0 134 8
001 0 0 0 0 3 5 0 0 0 FFFFTFTFFFFFFF2 81 1 132 162 127 68 0 107 106 130 135 83 2
55 3 133 .792156862745098 .819607843137255 .933333333333333 81 1 107 181 105 68
 132 0 103 110 136 81 1 106 161 127 102 0 103 128 132 137 83 3 135 .792156862745
098 .819607843137255 .933333333333333 81 1 128 160 127 80 0 110 122 106 138 83 3
 137 .792156862745098 .819607843137255 .933333333333333 81 1 110 182 105 80 128
 0 107 113 139 83 3 138 .792156862745098 .819607843137255 .933333333333333 82 1
 139 181993597 82 1 136 173801597 79 255 15 134 SDL/TYSA_COLOUR50 112 78 0 98 10
9 104 0 +0 0 0 0 0 1 1 0 0 50 109 2 0 68 0 112 0 +0 0 .01 0 0 1 1 0 0 81 1 118 1
58 127 114 0 116 115 122 140 83 3 129 .792156862745098 .819607843137255 .9333333
33333333 81 1 115 157 127 12 0 113 0 118 141 83 3 140 .792156862745098 .81960784
3137255 .933333333333333 83 3 141 .792156862745098 .819607843137255 .93333333333
3333 79 14 126 SWEntUnchanged82 1 120 182517885 82 1 117 182780029 82 1 108 1817
31453 17 25 0 24 61 21 51 101 94 0 100 +16 94 4 0 ?25 62 54 142 0 0 1 16 62 7 0
 ?61 66 94 84 0 0 1 31 142 5 0 94 0 84 0 +0 0 .01 0 0 -1 1 0 0 .01 30 84 8 0 62
 142 73 0 +.1 -113716384458828e-32 .01 1 -1263515382875868e-32 0 19 13 115 0 1 0
 8 4 S0 74 4 CI16 index_map_offset0 0 1 dCCZ20 11 2 0 0 123 130 0 0 0 0 0 0 0 0
 0 0 0 0 0 0 0 0 0 0 1 0 
