                                                                        S      1
,,33HCAE_overload_protection_device v1,31HCAE_overload_protection_deviceG      1
_,7Hunknown,7Hunknown,32,38,7,99,15,,1.,2,2HMM,1,0.08,15H20231015.213956G      2
,0.01,10000.,7Hunknown,7Hunknown,11,0,15H20231015.122916;               G      3
     186       1                                                00000000D      1
     186            -263       1       0                               0D      2
     514       2                                                00010000D      3
     514                       2       1                               0D      4
     510       4                                                00010000D      5
     510            -263       1       1                               0D      6
     510       5                                                00010000D      7
     510            -263       1       1                               0D      8
     510       6                                                00010000D      9
     510            -263       1       1                               0D     10
     510       7                                                00010000D     11
     510            -263       1       1                               0D     12
     510       8                                                00010000D     13
     510            -263       1       1                               0D     14
     510       9                                                00010000D     15
     510            -263       1       1                               0D     16
     510      10                                                00010000D     17
     510            -263       1       1                               0D     18
     510      11                                                00010000D     19
     510            -263       1       1                               0D     20
     510      12                                                00010000D     21
     510            -263       1       1                               0D     22
     510      13                                                00010000D     23
     510            -263       1       1                               0D     24
     510      14                                                00010000D     25
     510            -263       1       1                               0D     26
     510      15                                                00010000D     27
     510            -263       1       1                               0D     28
     510      16                                                00010000D     29
     510            -263       1       1                               0D     30
     510      17                                                00010000D     31
     510            -263       1       1                               0D     32
     510      18                                                00010000D     33
     510            -263       1       1                               0D     34
     510      19                                                00010000D     35
     510            -263       1       1                               0D     36
     510      20                                                00010000D     37
     510            -263       1       1                               0D     38
     510      21                                                00010000D     39
     510            -263       1       1                               0D     40
     510      22                                                00010000D     41
     510            -263       1       1                               0D     42
     510      23                                                00010000D     43
     510            -263       1       1                               0D     44
     510      24                                                00010000D     45
     510            -263       1       1                               0D     46
     508      25                                                00010000D     47
     508                       1       1                               0D     48
     508      26                                                00010000D     49
     508                       1       1                               0D     50
     508      27                                                00010000D     51
     508                       1       1                               0D     52
     508      28                                                00010000D     53
     508                       1       1                               0D     54
     508      29                                                00010000D     55
     508                       1       1                               0D     56
     508      30                                                00010000D     57
     508                       1       1                               0D     58
     508      31                                                00010000D     59
     508                       1       1                               0D     60
     508      32                                                00010000D     61
     508                       1       1                               0D     62
     508      33                                                00010000D     63
     508                       1       1                               0D     64
     508      34                                                00010000D     65
     508                       1       1                               0D     66
     508      35                                                00010000D     67
     508                       1       1                               0D     68
     508      36                                                00010000D     69
     508                       1       1                               0D     70
     508      37                                                00010000D     71
     508                       1       1                               0D     72
     508      38                                                00010000D     73
     508                       1       1                               0D     74
     508      39                                                00010000D     75
     508                       1       1                               0D     76
     508      40                                                00010000D     77
     508                       1       1                               0D     78
     508      41                                                00010000D     79
     508                       1       1                               0D     80
     508      42                                                00010000D     81
     508                       1       1                               0D     82
     508      43                                                00010000D     83
     508                       1       1                               0D     84
     508      44                                                00010000D     85
     508                       4       1                               0D     86
     508      48                                                00010000D     87
     508                       1       1                               0D     88
     508      49                                                00010000D     89
     508                       1       1                               0D     90
     508      50                                                00010000D     91
     508                       1       1                               0D     92
     508      51                                                00010000D     93
     508                       4       1                               0D     94
     508      55                                                00010000D     95
     508                       1       1                               0D     96
     508      56                                                00010000D     97
     508                       1       1                               0D     98
     508      57                                                00010000D     99
     508                       1       1                               0D    100
     126      58                                                00010000D    101
     126       0               8       0                               0D    102
     126      66                                                00010000D    103
     126       0               2       0                               0D    104
     126      68                                                00010000D    105
     126       0               8       0                               0D    106
     126      76                                                00010000D    107
     126       0               8       0                               0D    108
     126      84                                                00010000D    109
     126       0               2       0                               0D    110
     126      86                                                00010000D    111
     126       0               8       0                               0D    112
     126      94                                                00010000D    113
     126       0               8       0                               0D    114
     126     102                                                00010000D    115
     126       0               2       0                               0D    116
     126     104                                                00010000D    117
     126       0               8       0                               0D    118
     126     112                                                00010000D    119
     126       0               3       0                               0D    120
     126     115                                                00010000D    121
     126       0               2       0                               0D    122
     126     117                                                00010000D    123
     126       0               3       0                               0D    124
     126     120                                                00010000D    125
     126       0               2       0                               0D    126
     126     122                                                00010000D    127
     126       0               2       0                               0D    128
     126     124                                                00010000D    129
     126       0               2       0                               0D    130
     126     126                                                00010000D    131
     126       0               2       0                               0D    132
     126     128                                                00010000D    133
     126       0               4       0                               0D    134
     126     132                                                00010000D    135
     126       0               4       0                               0D    136
     126     136                                                00010000D    137
     126       0               3       0                               0D    138
     126     139                                                00010000D    139
     126       0               3       0                               0D    140
     126     142                                                00010000D    141
     126       0               3       0                               0D    142
     126     145                                                00010000D    143
     126       0               3       0                               0D    144
     126     148                                                00010000D    145
     126       0               7       0                               0D    146
     126     155                                                00010000D    147
     126       0               7       0                               0D    148
     126     162                                                00010000D    149
     126       0               3       0                               0D    150
     126     165                                                00010000D    151
     126       0               5       0                               0D    152
     126     170                                                00010000D    153
     126       0               5       0                               0D    154
     126     175                                                00010000D    155
     126       0               3       0                               0D    156
     126     178                                                00010000D    157
     126       0               3       0                               0D    158
     126     181                                                00010000D    159
     126       0               3       0                               0D    160
     126     184                                                00010000D    161
     126       0               2       0                               0D    162
     126     186                                                00010000D    163
     126       0               2       0                               0D    164
     126     188                                                00010000D    165
     126       0               2       0                               0D    166
     126     190                                                00010000D    167
     126       0               2       0                               0D    168
     126     192                                                00010000D    169
     126       0               4       0                               0D    170
     126     196                                                00010000D    171
     126       0               4       0                               0D    172
     126     200                                                00010000D    173
     126       0               2       0                               0D    174
     126     202                                                00010000D    175
     126       0               2       0                               0D    176
     126     204                                                00010000D    177
     126       0               2       0                               0D    178
     126     206                                                00010000D    179
     126       0               2       0                               0D    180
     126     208                                                00010000D    181
     126       0               3       0                               0D    182
     126     211                                                00010000D    183
     126       0               3       0                               0D    184
     126     214                                                00010000D    185
     126       0               2       0                               0D    186
     126     216                                                00010000D    187
     126       0               2       0                               0D    188
     126     218                                                00010000D    189
     126       0               2       0                               0D    190
     126     220                                                00010000D    191
     126       0               2       0                               0D    192
     126     222                                                00010000D    193
     126       0               3       0                               0D    194
     126     225                                                00010000D    195
     126       0               3       0                               0D    196
     126     228                                                00010000D    197
     126       0               2       0                               0D    198
     126     230                                                00010000D    199
     126       0               2       0                               0D    200
     126     232                                                00010000D    201
     126       0               2       0                               0D    202
     126     234                                                00010000D    203
     126       0               2       0                               0D    204
     126     236                                                00010000D    205
     126       0               3       0                               0D    206
     126     239                                                00010000D    207
     126       0               3       0                               0D    208
     126     242                                                00010000D    209
     126       0               2       0                               0D    210
     126     244                                                00010000D    211
     126       0               2       0                               0D    212
     126     246                                                00010000D    213
     126       0               2       0                               0D    214
     128     248                                                00010000D    215
     128       0    -263      12       0                               0D    216
     128     260                                                00010000D    217
     128       0    -263      11       0                               0D    218
     128     271                                                00010000D    219
     128       0    -263      11       0                               0D    220
     128     282                                                00010000D    221
     128       0    -263       4       0                               0D    222
     128     286                                                00010000D    223
     128       0    -263       4       0                               0D    224
     128     290                                                00010000D    225
     128       0    -263       6       0                               0D    226
     128     296                                                00010000D    227
     128       0    -263       6       0                               0D    228
     128     302                                                00010000D    229
     128       0    -263      11       0                               0D    230
     128     313                                                00010000D    231
     128       0    -263       7       0                               0D    232
     128     320                                                00010000D    233
     128       0    -263       5       0                               0D    234
     128     325                                                00010000D    235
     128       0    -263       4       0                               0D    236
     128     329                                                00010000D    237
     128       0    -263       5       0                               0D    238
     128     334                                                00010000D    239
     128       0    -263       4       0                               0D    240
     128     338                                                00010000D    241
     128       0    -263       4       0                               0D    242
     128     342                                                00010000D    243
     128       0    -263       3       0                               0D    244
     128     345                                                00010000D    245
     128       0    -263       4       0                               0D    246
     128     349                                                00010000D    247
     128       0    -263       3       0                               0D    248
     128     352                                                00010000D    249
     128       0    -263       4       0                               0D    250
     128     356                                                00010000D    251
     128       0    -263       3       0                               0D    252
     128     359                                                00010000D    253
     128       0    -263       5       0                               0D    254
     128     364                                                00010000D    255
     128       0    -263       5       0                               0D    256
     502     369                                                00010000D    257
     502                      14       1                               0D    258
     504     383                                                00010001D    259
     504                      16       1                               0D    260
     406     399                                                00000000D    261
     406                       1      15                               0D    262
     314     400                                                00000200D    263
     314                       2       0                               0D    264
186,3,1,0,0,1,261;                                                     1P      1
514,21,5,1,7,1,9,1,11,1,13,1,15,1,17,1,19,1,21,1,23,1,25,1,27,1,       3P      2
29,1,31,1,33,1,35,1,37,1,39,1,41,1,43,1,45,1;                          3P      3
510,215,1,1,47;                                                        5P      4
510,217,1,1,49;                                                        7P      5
510,219,1,1,51;                                                        9P      6
510,221,1,1,53;                                                       11P      7
510,223,1,1,55;                                                       13P      8
510,225,1,1,57;                                                       15P      9
510,227,1,1,59;                                                       17P     10
510,229,1,1,61;                                                       19P     11
510,231,1,1,63;                                                       21P     12
510,233,1,1,65;                                                       23P     13
510,235,1,1,67;                                                       25P     14
510,237,1,1,69;                                                       27P     15
510,239,1,1,71;                                                       29P     16
510,241,1,1,73;                                                       31P     17
510,243,1,1,75;                                                       33P     18
510,245,1,1,77;                                                       35P     19
510,247,1,1,79;                                                       37P     20
510,249,1,1,81;                                                       39P     21
510,251,1,1,83;                                                       41P     22
510,253,4,1,85,87,89,91;                                              43P     23
510,255,4,1,93,95,97,99;                                              45P     24
508,4,0,259,1,0,0,0,259,2,1,0,0,259,3,1,0,0,259,2,0,0;                47P     25
508,4,0,259,4,0,0,0,259,5,1,0,0,259,6,1,0,0,259,5,0,0;                49P     26
508,4,0,259,7,0,0,0,259,8,1,0,0,259,9,1,0,0,259,8,0,0;                51P     27
508,4,0,259,10,0,0,0,259,11,1,0,0,259,12,0,0,0,259,13,0,0;            53P     28
508,4,0,259,14,1,0,0,259,13,1,0,0,259,15,0,0,0,259,16,0,0;            55P     29
508,4,0,259,17,0,0,0,259,16,1,0,0,259,18,0,0,0,259,19,0,0;            57P     30
508,4,0,259,20,1,0,0,259,19,1,0,0,259,21,0,0,0,259,22,0,0;            59P     31
508,4,0,259,23,1,0,0,259,22,1,0,0,259,24,0,0,0,259,25,0,0;            61P     32
508,4,0,259,26,0,0,0,259,25,1,0,0,259,27,0,0,0,259,28,0,0;            63P     33
508,4,0,259,29,0,0,0,259,28,1,0,0,259,30,0,0,0,259,31,0,0;            65P     34
508,4,0,259,32,0,0,0,259,31,1,0,0,259,33,0,0,0,259,34,0,0;            67P     35
508,4,0,259,35,1,0,0,259,34,1,0,0,259,36,0,0,0,259,37,0,0;            69P     36
508,4,0,259,38,0,0,0,259,37,1,0,0,259,39,0,0,0,259,40,0,0;            71P     37
508,4,0,259,41,1,0,0,259,40,1,0,0,259,42,0,0,0,259,43,0,0;            73P     38
508,4,0,259,44,0,0,0,259,43,1,0,0,259,45,0,0,0,259,46,0,0;            75P     39
508,4,0,259,47,1,0,0,259,46,1,0,0,259,48,0,0,0,259,49,0,0;            77P     40
508,4,0,259,50,1,0,0,259,49,1,0,0,259,51,0,0,0,259,52,0,0;            79P     41
508,4,0,259,53,1,0,0,259,52,1,0,0,259,54,0,0,0,259,55,0,0;            81P     42
508,4,0,259,56,1,0,0,259,55,1,0,0,259,57,0,0,0,259,11,0,0;            83P     43
508,16,0,259,57,1,0,0,259,54,1,0,0,259,51,1,0,0,259,48,1,0,0,         85P     44
259,45,1,0,0,259,42,1,0,0,259,39,1,0,0,259,36,1,0,0,259,33,1,0,       85P     45
0,259,30,1,0,0,259,27,1,0,0,259,24,1,0,0,259,21,1,0,0,259,18,1,       85P     46
0,0,259,15,1,0,0,259,12,1,0;                                          85P     47
508,1,0,259,7,1,0;                                                    87P     48
508,1,0,259,4,1,0;                                                    89P     49
508,1,0,259,1,1,0;                                                    91P     50
508,16,0,259,56,0,0,0,259,10,1,0,0,259,14,0,0,0,259,17,1,0,0,         93P     51
259,20,0,0,0,259,23,0,0,0,259,26,1,0,0,259,29,1,0,0,259,32,1,0,       93P     52
0,259,35,0,0,0,259,38,1,0,0,259,41,0,0,0,259,44,1,0,0,259,47,0,       93P     53
0,0,259,50,0,0,0,259,53,0,0;                                          93P     54
508,1,0,259,9,0,0;                                                    95P     55
508,1,0,259,6,0,0;                                                    97P     56
508,1,0,259,3,0,0;                                                    99P     57
126,8,2,0,1,0,0,-3.14159265358979,-3.14159265358979,                 101P     58
-3.14159265358979,-1.5707963267949,-1.5707963267949,0.,0.,           101P     59
1.5707963267949,1.5707963267949,3.14159265358979,                    101P     60
3.14159265358979,3.14159265358979,1.,0.707106781186549,1.,           101P     61
0.707106781186545,1.,0.707106781186545,1.,0.707106781186549,1.,      101P     62
37.,-3.,6.,37.,9.18485099360514D-17,6.,40.,0.,6.,43.,                101P     63
-9.18485099360514D-17,6.,43.,-3.,6.,43.,-6.,6.,40.,-6.,6.,37.,       101P     64
-6.,6.,37.,-3.,6.,-3.14159265358979,3.14159265358979,0.,0.,0.;       101P     65
126,1,1,0,0,1,0,-2.,-2.,0.,0.,1.,1.,37.,-3.,6.,37.,-3.,0.,-2.,       103P     66
0.,0.,0.,0.;                                                         103P     67
126,8,2,0,1,0,0,-3.14159265358979,-3.14159265358979,                 105P     68
-3.14159265358979,-1.5707963267949,-1.5707963267949,0.,0.,           105P     69
1.5707963267949,1.5707963267949,3.14159265358979,                    105P     70
3.14159265358979,3.14159265358979,1.,0.707106781186549,1.,           105P     71
0.707106781186545,1.,0.707106781186545,1.,0.707106781186549,1.,      105P     72
37.,-3.,0.,37.,9.18485099360514D-17,0.,40.,0.,0.,43.,                105P     73
-9.18485099360514D-17,0.,43.,-3.,0.,43.,-6.,0.,40.,-6.,0.,37.,       105P     74
-6.,0.,37.,-3.,0.,-3.14159265358979,3.14159265358979,0.,0.,0.;       105P     75
126,8,2,0,1,0,0,-3.14159265358979,-3.14159265358979,                 107P     76
-3.14159265358979,-1.5707963267949,-1.5707963267949,0.,0.,           107P     77
1.5707963267949,1.5707963267949,3.14159265358979,                    107P     78
3.14159265358979,3.14159265358979,1.,0.707106781186555,1.,           107P     79
0.707106781186555,1.,0.707106781186555,1.,0.707106781186555,1.,      107P     80
97.,23.,6.,97.,26.,6.,100.,26.,6.,103.,26.,6.,103.,23.,6.,103.,      107P     81
20.,6.,100.,20.,6.,97.,20.,6.,97.,23.,6.,-3.14159265358979,          107P     82
3.14159265358979,0.,0.,0.;                                           107P     83
126,1,1,0,0,1,0,-2.,-2.,0.,0.,1.,1.,97.,23.,6.,97.,23.,0.,-2.,       109P     84
0.,0.,0.,0.;                                                         109P     85
126,8,2,0,1,0,0,-3.14159265358979,-3.14159265358979,                 111P     86
-3.14159265358979,-1.5707963267949,-1.5707963267949,0.,0.,           111P     87
1.5707963267949,1.5707963267949,3.14159265358979,                    111P     88
3.14159265358979,3.14159265358979,1.,0.707106781186555,1.,           111P     89
0.707106781186555,1.,0.707106781186555,1.,0.707106781186555,1.,      111P     90
97.,23.,0.,97.,26.,0.,100.,26.,0.,103.,26.,0.,103.,23.,0.,103.,      111P     91
20.,0.,100.,20.,0.,97.,20.,0.,97.,23.,0.,-3.14159265358979,          111P     92
3.14159265358979,0.,0.,0.;                                           111P     93
126,8,2,0,1,0,0,-3.14159265358979,-3.14159265358979,                 113P     94
-3.14159265358979,-1.5707963267949,-1.5707963267949,0.,0.,           113P     95
1.5707963267949,1.5707963267949,3.14159265358979,                    113P     96
3.14159265358979,3.14159265358979,1.,0.707106781186553,1.,           113P     97
0.707106781186553,1.,0.707106781186553,1.,0.707106781186553,1.,      113P     98
7.,47.,6.,7.,50.,6.,10.,50.,6.,13.,50.,6.,13.,47.,6.,13.,44.,6.,     113P     99
10.,44.,6.,7.,44.,6.,7.,47.,6.,-3.14159265358979,                    113P    100
3.14159265358979,0.,0.,0.;                                           113P    101
126,1,1,0,0,1,0,-2.,-2.,0.,0.,1.,1.,7.,47.,6.,7.,47.,0.,-2.,0.,      115P    102
0.,0.,0.;                                                            115P    103
126,8,2,0,1,0,0,-3.14159265358979,-3.14159265358979,                 117P    104
-3.14159265358979,-1.5707963267949,-1.5707963267949,0.,0.,           117P    105
1.5707963267949,1.5707963267949,3.14159265358979,                    117P    106
3.14159265358979,3.14159265358979,1.,0.707106781186553,1.,           117P    107
0.707106781186553,1.,0.707106781186553,1.,0.707106781186553,1.,      117P    108
7.,47.,0.,7.,50.,0.,10.,50.,0.,13.,50.,0.,13.,47.,0.,13.,44.,0.,     117P    109
10.,44.,0.,7.,44.,0.,7.,47.,0.,-3.14159265358979,                    117P    110
3.14159265358979,0.,0.,0.;                                           117P    111
126,2,2,0,0,0,0,0.,0.,0.,1.5707963267949,1.5707963267949,            119P    112
1.5707963267949,1.,0.707106781186545,1.,90.,32.,0.,90.,37.,0.,       119P    113
85.,37.,0.,0.,1.5707963267949,0.,0.,0.;                              119P    114
126,1,1,0,0,1,0,0.,0.,0.6,0.6,1.,1.,90.,32.,0.,90.,32.,6.,0.,        121P    115
0.6,0.,0.,0.;                                                        121P    116
126,2,2,0,0,0,0,-1.5707963267949,-1.5707963267949,                   123P    117
-1.5707963267949,0.,0.,0.,1.,0.707106781186545,1.,85.,37.,6.,        123P    118
90.,37.,6.,90.,32.,6.,-1.5707963267949,0.,0.,0.,0.;                  123P    119
126,1,1,0,0,1,0,0.,0.,0.6,0.6,1.,1.,85.,37.,0.,85.,37.,6.,0.,        125P    120
0.6,0.,0.,0.;                                                        125P    121
126,1,1,0,0,1,0,0.,0.,1.18463522384356,1.18463522384356,1.,1.,       127P    122
73.1536477615644,37.,0.,85.,37.,0.,0.,1.18463522384356,0.,0.,0.;     127P    123
126,1,1,0,0,1,0,0.,0.,1.18463522384356,1.18463522384356,1.,1.,       129P    124
73.1536477615644,37.,6.,85.,37.,6.,0.,1.18463522384356,0.,0.,0.;     129P    125
126,1,1,0,0,1,0,0.,0.,0.6,0.6,1.,1.,73.1536477615644,37.,0.,         131P    126
73.1536477615644,37.,6.,0.,0.6,0.,0.,0.;                             131P    127
126,2,2,0,0,0,0,0.,0.,0.,1.12541767461815,1.12541767461815,          133P    128
1.12541767461815,1.,0.84581310728995,1.,73.1536477615644,37.,0.,     133P    129
70.,37.,0.,68.6414097271663,34.1539981246349,0.,0.,                  133P    130
1.12541767461815,0.,0.,0.;                                           133P    131
126,2,2,0,0,0,0,-1.12541767461815,-1.12541767461815,                 135P    132
-1.12541767461815,0.,0.,0.,1.,0.84581310728995,1.,                   135P    133
68.6414097271663,34.1539981246349,6.,70.,37.,6.,                     135P    134
73.1536477615644,37.,6.,-1.12541767461815,0.,0.,0.,0.;               135P    135
126,1,1,0,0,1,0,0.,0.,0.6,0.6,1.,1.,68.6414097271663,                137P    136
34.1539981246349,0.,68.6414097271663,34.1539981246349,6.,0.,0.6,     137P    137
0.,0.,0.;                                                            137P    138
126,1,1,0,0,1,0,0.,0.,4.76419407138463,4.76419407138463,1.,1.,       139P    139
48.1172795368483,-8.84035725967718,0.,68.6414097271663,              139P    140
34.1539981246349,0.,0.,4.76419407138463,0.,0.,0.;                    139P    141
126,1,1,0,0,1,0,0.,0.,4.76419407138463,4.76419407138463,1.,1.,       141P    142
48.1172795368483,-8.84035725967718,6.,68.6414097271663,              141P    143
34.1539981246349,6.,0.,4.76419407138463,0.,0.,0.;                    141P    144
126,1,1,0,0,1,0,0.,0.,0.6,0.6,1.,1.,48.1172795368483,                143P    145
-8.84035725967718,0.,48.1172795368483,-8.84035725967718,6.,0.,       143P    146
0.6,0.,0.,0.;                                                        143P    147
126,4,2,0,0,0,0,0.,0.,0.,1.1920847211952,1.1920847211952,            145P    148
2.3841694423904,2.3841694423904,2.3841694423904,1.,                  145P    149
0.827563796806991,1.,0.827563796806996,1.,30.0892875017877,          145P    150
-4.33333333333333,0.,30.9937441432725,-11.0561906389743,0.,          145P    151
37.5746306230008,-12.7014217197849,0.,44.155517102729,               145P    152
-14.3466528005955,0.,48.1172795368483,-8.84035725967718,0.,0.,       145P    153
2.3841694423904,0.,0.,0.;                                            145P    154
126,4,2,0,0,0,0,0.,0.,0.,1.1920847211952,1.1920847211952,            147P    155
2.3841694423904,2.3841694423904,2.3841694423904,1.,                  147P    156
0.827563796806991,1.,0.827563796806996,1.,30.0892875017877,          147P    157
-4.33333333333333,6.,30.9937441432725,-11.0561906389743,6.,          147P    158
37.5746306230008,-12.7014217197849,6.,44.155517102729,               147P    159
-14.3466528005955,6.,48.1172795368483,-8.84035725967718,6.,0.,       147P    160
2.3841694423904,0.,0.,0.;                                            147P    161
126,1,1,0,0,1,0,0.,0.,0.6,0.6,1.,1.,30.0892875017877,                149P    162
-4.33333333333333,0.,30.0892875017877,-4.33333333333333,6.,0.,       149P    163
0.6,0.,0.,0.;                                                        149P    164
126,2,2,0,0,0,0,0.,0.,0.,1.43706473738496,1.43706473738496,          151P    165
1.43706473738496,1.,0.752772652709081,1.,30.0892875017877,           151P    166
-4.33333333333333,0.,29.5063044136575,4.90048445549074D-15,0.,       151P    167
25.1339312526815,4.44089209850063D-15,0.,0.,1.43706473738496,0.,     151P    168
0.,0.;                                                               151P    169
126,2,2,0,0,0,0,-1.43706473738496,-1.43706473738496,                 153P    170
-1.43706473738496,0.,0.,0.,1.,0.752772652709081,1.,                  153P    171
25.1339312526815,4.44089209850063D-15,6.,29.5063044136575,           153P    172
4.90048445549074D-15,6.,30.0892875017877,-4.33333333333333,6.,       153P    173
-1.43706473738496,0.,0.,0.,0.;                                       153P    174
126,1,1,0,0,1,0,0.,0.,0.6,0.6,1.,1.,25.1339312526815,                155P    175
4.44089209850063D-15,0.,25.1339312526815,4.44089209850063D-15,       155P    176
6.,0.,0.6,0.,0.,0.;                                                  155P    177
126,1,1,0,0,1,0,0.,0.,2.51339312526815,2.51339312526815,1.,1.,       157P    178
25.1339312526815,4.44089209850063D-15,0.,0.,                         157P    179
-4.44089209850063D-15,0.,0.,2.51339312526815,0.,0.,0.;               157P    180
126,1,1,0,0,1,0,-2.51339312526815,-2.51339312526815,0.,0.,1.,1.,     159P    181
0.,-4.44089209850063D-15,6.,25.1339312526815,                        159P    182
4.44089209850063D-15,6.,-2.51339312526815,0.,0.,0.,0.;               159P    183
126,1,1,0,0,1,0,0.,0.,0.6,0.6,1.,1.,0.,-4.44089209850063D-15,0.,     161P    184
0.,-4.44089209850063D-15,6.,0.,0.6,0.,0.,0.;                         161P    185
126,1,1,0,0,1,0,0.,0.,5.2,5.2,1.,1.,0.,-4.44089209850063D-15,0.,     163P    186
0.,52.,0.,0.,5.2,0.,0.,0.;                                           163P    187
126,1,1,0,0,1,0,-5.2,-5.2,0.,0.,1.,1.,0.,52.,6.,0.,                  165P    188
-4.44089209850063D-15,6.,-5.2,0.,0.,0.,0.;                           165P    189
126,1,1,0,0,1,0,0.,0.,0.6,0.6,1.,1.,-1.11022302462516D-15,52.,       167P    190
0.,-1.11022302462516D-15,52.,6.,0.,0.6,0.,0.,0.;                     167P    191
126,2,2,0,0,0,0,0.,0.,0.,1.5707963267949,1.5707963267949,            169P    192
1.5707963267949,1.,0.707106781186549,1.,5.,57.,0.,                   169P    193
-6.79586418575448D-16,57.,0.,-1.11022302462516D-15,52.,0.,0.,        169P    194
1.5707963267949,0.,0.,0.;                                            169P    195
126,2,2,0,0,0,0,0.,0.,0.,1.5707963267949,1.5707963267949,            171P    196
1.5707963267949,1.,0.707106781186549,1.,5.,57.,6.,                   171P    197
-6.79586418575448D-16,57.,6.,-1.11022302462516D-15,52.,6.,0.,        171P    198
1.5707963267949,0.,0.,0.;                                            171P    199
126,1,1,0,0,1,0,0.,0.,0.6,0.6,1.,1.,5.,57.,0.,5.,57.,6.,0.,0.6,      173P    200
0.,0.,0.;                                                            173P    201
126,1,1,0,0,1,0,0.,0.,10.,10.,1.,1.,5.,57.,0.,105.,57.,0.,0.,        175P    202
10.,0.,0.,0.;                                                        175P    203
126,1,1,0,0,1,0,-10.,-10.,0.,0.,1.,1.,105.,57.,6.,5.,57.,6.,         177P    204
-10.,0.,0.,0.,0.;                                                    177P    205
126,1,1,0,0,1,0,0.,0.,0.6,0.6,1.,1.,105.,57.,0.,105.,57.,6.,0.,      179P    206
0.6,0.,0.,0.;                                                        179P    207
126,2,2,0,0,0,0,0.,0.,0.,1.5707963267949,1.5707963267949,            181P    208
1.5707963267949,1.,0.707106781186545,1.,110.,52.,0.,110.,57.,0.,     181P    209
105.,57.,0.,0.,1.5707963267949,0.,0.,0.;                             181P    210
126,2,2,0,0,0,0,0.,0.,0.,1.5707963267949,1.5707963267949,            183P    211
1.5707963267949,1.,0.707106781186545,1.,110.,52.,6.,110.,57.,6.,     183P    212
105.,57.,6.,0.,1.5707963267949,0.,0.,0.;                             183P    213
126,1,1,0,0,1,0,0.,0.,0.6,0.6,1.,1.,110.,52.,0.,110.,52.,6.,0.,      185P    214
0.6,0.,0.,0.;                                                        185P    215
126,1,1,0,0,1,0,0.,0.,3.4,3.4,1.,1.,110.,52.,0.,110.,18.,0.,0.,      187P    216
3.4,0.,0.,0.;                                                        187P    217
126,1,1,0,0,1,0,-3.4,-3.4,0.,0.,1.,1.,110.,18.,6.,110.,52.,6.,       189P    218
-3.4,0.,0.,0.,0.;                                                    189P    219
126,1,1,0,0,1,0,0.,0.,0.6,0.6,1.,1.,110.,18.,0.,110.,18.,6.,0.,      191P    220
0.6,0.,0.,0.;                                                        191P    221
126,2,2,0,0,0,0,0.,0.,0.,1.5707963267949,1.5707963267949,            193P    222
1.5707963267949,1.,0.707106781186543,1.,105.,13.,0.,110.,13.,0.,     193P    223
110.,18.,0.,0.,1.5707963267949,0.,0.,0.;                             193P    224
126,2,2,0,0,0,0,0.,0.,0.,1.5707963267949,1.5707963267949,            195P    225
1.5707963267949,1.,0.707106781186543,1.,105.,13.,6.,110.,13.,6.,     195P    226
110.,18.,6.,0.,1.5707963267949,0.,0.,0.;                             195P    227
126,1,1,0,0,1,0,0.,0.,0.6,0.6,1.,1.,105.,13.,0.,105.,13.,6.,0.,      197P    228
0.6,0.,0.,0.;                                                        197P    229
126,1,1,0,0,1,0,0.,0.,1.,1.,1.,1.,95.,13.,0.,105.,13.,0.,0.,1.,      199P    230
0.,0.,0.;                                                            199P    231
126,1,1,0,0,1,0,0.,0.,1.,1.,1.,1.,95.,13.,6.,105.,13.,6.,0.,1.,      201P    232
0.,0.,0.;                                                            201P    233
126,1,1,0,0,1,0,0.,0.,0.6,0.6,1.,1.,95.,13.,0.,95.,13.,6.,0.,        203P    234
0.6,0.,0.,0.;                                                        203P    235
126,2,2,0,0,0,0,0.,0.,0.,1.5707963267949,1.5707963267949,            205P    236
1.5707963267949,1.,0.707106781186543,1.,90.,18.,0.,90.,13.,0.,       205P    237
95.,13.,0.,0.,1.5707963267949,0.,0.,0.;                              205P    238
126,2,2,0,0,0,0,0.,0.,0.,1.5707963267949,1.5707963267949,            207P    239
1.5707963267949,1.,0.707106781186543,1.,90.,18.,6.,90.,13.,6.,       207P    240
95.,13.,6.,0.,1.5707963267949,0.,0.,0.;                              207P    241
126,1,1,0,0,1,0,0.,0.,0.6,0.6,1.,1.,90.,18.,0.,90.,18.,6.,0.,        209P    242
0.6,0.,0.,0.;                                                        209P    243
126,1,1,0,0,1,0,0.,0.,1.4,1.4,1.,1.,90.,32.,0.,90.,18.,0.,0.,        211P    244
1.4,0.,0.,0.;                                                        211P    245
126,1,1,0,0,1,0,0.,0.,1.4,1.4,1.,1.,90.,32.,6.,90.,18.,6.,0.,        213P    246
1.4,0.,0.,0.;                                                        213P    247
128,1,8,1,2,0,1,0,0,1,0.,0.,2.,2.,-3.14159265358979,                 215P    248
-3.14159265358979,-3.14159265358979,-1.5707963267949,                215P    249
-1.5707963267949,0.,0.,1.5707963267949,1.5707963267949,              215P    250
3.14159265358979,3.14159265358979,3.14159265358979,1.,1.,            215P    251
0.707106781186548,0.707106781186548,1.,1.,0.707106781186548,         215P    252
0.707106781186548,1.,1.,0.707106781186548,0.707106781186548,1.,      215P    253
1.,0.707106781186548,0.707106781186548,1.,1.,37.,-3.,0.,37.,-3.,     215P    254
6.,37.,-6.,0.,37.,-6.,6.,40.,-6.,0.,40.,-6.,6.,43.,-6.,0.,43.,       215P    255
-6.,6.,43.,-3.,0.,43.,-3.,6.,43.,-5.55111512312578D-16,0.,43.,       215P    256
-5.55111512312578D-16,6.,40.,0.,0.,40.,0.,6.,37.,                    215P    257
-5.55111512312578D-16,0.,37.,-5.55111512312578D-16,6.,37.,-3.,       215P    258
0.,37.,-3.,6.,0.,2.,-3.14159265358979,3.14159265358979;              215P    259
128,1,8,1,2,0,1,0,0,1,0.,0.,2.,2.,-3.14159265358979,                 217P    260
-3.14159265358979,-3.14159265358979,-1.5707963267949,                217P    261
-1.5707963267949,0.,0.,1.5707963267949,1.5707963267949,              217P    262
3.14159265358979,3.14159265358979,3.14159265358979,1.,1.,            217P    263
0.707106781186548,0.707106781186548,1.,1.,0.707106781186548,         217P    264
0.707106781186548,1.,1.,0.707106781186548,0.707106781186548,1.,      217P    265
1.,0.707106781186548,0.707106781186548,1.,1.,97.,23.,0.,97.,23.,     217P    266
6.,97.,20.,0.,97.,20.,6.,100.,20.,0.,100.,20.,6.,103.,20.,0.,        217P    267
103.,20.,6.,103.,23.,0.,103.,23.,6.,103.,26.,0.,103.,26.,6.,         217P    268
100.,26.,0.,100.,26.,6.,97.,26.,0.,97.,26.,6.,97.,23.,0.,97.,        217P    269
23.,6.,0.,2.,-3.14159265358979,3.14159265358979;                     217P    270
128,1,8,1,2,0,1,0,0,1,0.,0.,2.,2.,-3.14159265358979,                 219P    271
-3.14159265358979,-3.14159265358979,-1.5707963267949,                219P    272
-1.5707963267949,0.,0.,1.5707963267949,1.5707963267949,              219P    273
3.14159265358979,3.14159265358979,3.14159265358979,1.,1.,            219P    274
0.707106781186548,0.707106781186548,1.,1.,0.707106781186548,         219P    275
0.707106781186548,1.,1.,0.707106781186548,0.707106781186548,1.,      219P    276
1.,0.707106781186548,0.707106781186548,1.,1.,7.,47.,0.,7.,47.,       219P    277
6.,7.,44.,0.,7.,44.,6.,10.,44.,0.,10.,44.,6.,13.,44.,0.,13.,44.,     219P    278
6.,13.,47.,0.,13.,47.,6.,13.,50.,0.,13.,50.,6.,10.,50.,0.,10.,       219P    279
50.,6.,7.,50.,0.,7.,50.,6.,7.,47.,0.,7.,47.,6.,0.,2.,                219P    280
-3.14159265358979,3.14159265358979;                                  219P    281
128,1,2,1,2,0,0,0,0,0,0.,0.,1.2,1.2,0.,0.,0.,1.5707963267949,        221P    282
1.5707963267949,1.5707963267949,1.,1.,0.707106781186548,             221P    283
0.707106781186548,1.,1.,90.,32.,0.,90.,32.,6.,90.,37.,0.,90.,        221P    284
37.,6.,85.,37.,0.,85.,37.,6.,0.,1.2,0.,1.5707963267949;              221P    285
128,1,1,1,1,0,0,1,0,0,-0.001,-0.001,1.18563522384356,                223P    286
1.18563522384356,-0.001,-0.001,0.601,0.601,1.,1.,1.,1.,              223P    287
73.1436477615644,37.,-0.01,85.01,37.,-0.01,73.1436477615644,37.,     223P    288
6.01,85.01,37.,6.01,-0.001,1.18563522384356,-0.001,0.601;            223P    289
128,1,2,1,2,0,0,0,0,0,0.,0.,1.2,1.2,0.,0.,0.,1.12541767461815,       225P    290
1.12541767461815,1.12541767461815,1.,1.,0.845813107289953,           225P    291
0.845813107289953,1.,1.,73.1536477615644,37.,0.,                     225P    292
73.1536477615644,37.,6.,70.,37.,0.,70.,37.,6.,68.6414097271663,      225P    293
34.1539981246349,0.,68.6414097271663,34.1539981246349,6.,0.,1.2,     225P    294
0.,1.12541767461815;                                                 225P    295
128,1,1,1,1,0,0,1,0,0,-0.001,-0.001,4.76519407138463,                227P    296
4.76519407138463,-0.001,-0.001,0.601,0.601,1.,1.,1.,1.,              227P    297
48.112971540599,-8.84938173574598,-0.01,68.6457177234155,            227P    298
34.1630226007037,-0.01,48.112971540599,-8.84938173574598,6.01,       227P    299
68.6457177234155,34.1630226007037,6.01,-0.001,4.76519407138463,      227P    300
-0.001,0.601;                                                        227P    301
128,1,4,1,2,0,0,0,0,0,0.,0.,0.6,0.6,0.,0.,0.,1.1920847211952,        229P    302
1.1920847211952,2.3841694423904,2.3841694423904,2.3841694423904,     229P    303
1.,1.,0.827563796806993,0.827563796806993,1.,1.,                     229P    304
0.827563796806993,0.827563796806993,1.,1.,30.0892875017877,          229P    305
-4.33333333333333,6.,30.0892875017877,-4.33333333333333,0.,          229P    306
30.9937441432725,-11.0561906389743,6.,30.9937441432725,              229P    307
-11.0561906389743,0.,37.5746306230008,-12.7014217197849,6.,          229P    308
37.5746306230008,-12.7014217197849,0.,44.155517102729,               229P    309
-14.3466528005955,6.,44.155517102729,-14.3466528005955,0.,           229P    310
48.1172795368483,-8.84035725967717,6.,48.1172795368483,              229P    311
-8.84035725967717,0.,0.,0.6,0.,2.3841694423904;                      229P    312
128,1,2,1,2,0,0,0,0,0,0.,0.,1.2,1.2,0.,0.,0.,1.43706473738496,       231P    313
1.43706473738496,1.43706473738496,1.,1.,0.752772652709081,           231P    314
0.752772652709081,1.,1.,30.0892875017877,-4.33333333333333,0.,       231P    315
30.0892875017877,-4.33333333333333,6.,29.5063044136575,              231P    316
4.44089209850063D-15,0.,29.5063044136575,4.44089209850063D-15,       231P    317
6.,25.1339312526815,4.28476698566271D-15,0.,25.1339312526815,        231P    318
4.28476698566271D-15,6.,0.,1.2,0.,1.43706473738496;                  231P    319
128,1,1,1,1,0,0,1,0,0,-0.001,-0.001,2.51439312526815,                233P    320
2.51439312526815,-0.001,-0.001,0.601,0.601,1.,1.,1.,1.,-0.01,        233P    321
-4.4444258808237D-15,-0.01,25.1439312526815,4.4444258808237D-15,     233P    322
-0.01,-0.01,-4.4444258808237D-15,6.01,25.1439312526815,              233P    323
4.4444258808237D-15,6.01,-0.001,2.51439312526815,-0.001,0.601;       233P    324
128,1,1,1,1,0,0,1,0,0,-0.001,-0.001,5.201,5.201,-0.001,-0.001,       235P    325
0.601,0.601,1.,1.,1.,1.,0.,52.01,-0.01,0.,-0.0100000000000033,       235P    326
-0.01,0.,52.01,6.01,0.,-0.0100000000000033,6.01,-0.001,5.201,        235P    327
-0.001,0.601;                                                        235P    328
128,1,2,1,2,0,0,0,0,0,0.,0.,1.2,1.2,0.,0.,0.,1.5707963267949,        237P    329
1.5707963267949,1.5707963267949,1.,1.,0.707106781186548,             237P    330
0.707106781186548,1.,1.,5.,57.,6.,5.,57.,0.,0.,57.,6.,0.,57.,0.,     237P    331
-1.11022302462516D-15,52.,6.,-1.11022302462516D-15,52.,0.,0.,        237P    332
1.2,0.,1.5707963267949;                                              237P    333
128,1,1,1,1,0,0,1,0,0,-0.001,-0.001,10.001,10.001,-0.001,-0.001,     239P    334
0.601,0.601,1.,1.,1.,1.,105.01,57.,-0.01,4.99000000000001,57.,       239P    335
-0.01,105.01,57.,6.01,4.99000000000001,57.,6.01,-0.001,10.001,       239P    336
-0.001,0.601;                                                        239P    337
128,1,2,1,2,0,0,0,0,0,0.,0.,1.2,1.2,0.,0.,0.,1.5707963267949,        241P    338
1.5707963267949,1.5707963267949,1.,1.,0.707106781186548,             241P    339
0.707106781186548,1.,1.,110.,52.,6.,110.,52.,0.,110.,57.,6.,         241P    340
110.,57.,0.,105.,57.,6.,105.,57.,0.,0.,1.2,0.,1.5707963267949;       241P    341
128,1,1,1,1,0,0,1,0,0,-0.001,-0.001,3.401,3.401,-0.001,-0.001,       243P    342
0.601,0.601,1.,1.,1.,1.,110.,17.99,-0.01,110.,52.01,-0.01,110.,      243P    343
17.99,6.01,110.,52.01,6.01,-0.001,3.401,-0.001,0.601;                243P    344
128,1,2,1,2,0,0,0,0,0,0.,0.,1.2,1.2,0.,0.,0.,1.5707963267949,        245P    345
1.5707963267949,1.5707963267949,1.,1.,0.707106781186548,             245P    346
0.707106781186548,1.,1.,105.,13.,6.,105.,13.,0.,110.,13.,6.,         245P    347
110.,13.,0.,110.,18.,6.,110.,18.,0.,0.,1.2,0.,1.5707963267949;       245P    348
128,1,1,1,1,0,0,1,0,0,-0.001,-0.001,1.001,1.001,-0.001,-0.001,       247P    349
0.601,0.601,1.,1.,1.,1.,94.99,13.,-0.01,105.01,13.,-0.01,94.99,      247P    350
13.,6.01,105.01,13.,6.01,-0.001,1.001,-0.001,0.601;                  247P    351
128,1,2,1,2,0,0,0,0,0,0.,0.,1.2,1.2,0.,0.,0.,1.5707963267949,        249P    352
1.5707963267949,1.5707963267949,1.,1.,0.707106781186548,             249P    353
0.707106781186548,1.,1.,90.,18.,6.,90.,18.,0.,90.,13.,6.,90.,        249P    354
13.,0.,95.,13.,6.,95.,13.,0.,0.,1.2,0.,1.5707963267949;              249P    355
128,1,1,1,1,0,0,1,0,0,-0.001,-0.001,1.401,1.401,-0.001,-0.001,       251P    356
0.601,0.601,1.,1.,1.,1.,90.,32.01,-0.01,90.,17.99,-0.01,90.,         251P    357
32.01,6.01,90.,17.99,6.01,-0.001,1.401,-0.001,0.601;                 251P    358
128,1,1,1,1,0,0,1,0,0,-5.501,-5.501,5.501,5.501,                     253P    359
-3.63566528005955,-3.63566528005955,3.501,3.501,1.,1.,1.,1.,         253P    360
-0.0100000000000033,-14.3566528005955,6.,110.01,                     253P    361
-14.3566528005955,6.,-0.0100000000000033,57.01,6.,110.01,57.01,      253P    362
6.,-5.501,5.501,-3.63566528005955,3.501;                             253P    363
128,1,1,1,1,0,0,1,0,0,-5.501,-5.501,5.501,5.501,                     255P    364
-3.63566528005955,-3.63566528005955,3.501,3.501,1.,1.,1.,1.,         255P    365
110.01,-14.3566528005955,0.,-0.0100000000000033,                     255P    366
-14.3566528005955,0.,110.01,57.01,0.,-0.0100000000000033,57.01,      255P    367
0.,-5.501,5.501,-3.63566528005955,3.501;                             255P    368
502,38,37.,-3.,6.,37.,-3.,0.,97.,23.,6.,97.,23.,0.,7.,47.,6.,7.,     257P    369
47.,0.,90.,32.,0.,85.,37.,0.,90.,32.,6.,85.,37.,6.,                  257P    370
73.1536477615644,37.,0.,73.1536477615644,37.,6.,                     257P    371
68.6414097271663,34.1539981246349,0.,68.6414097271663,               257P    372
34.1539981246349,6.,48.1172795368483,-8.84035725967718,0.,           257P    373
48.1172795368483,-8.84035725967718,6.,30.0892875017877,              257P    374
-4.33333333333333,0.,30.0892875017877,-4.33333333333333,6.,          257P    375
25.1339312526815,4.44089209850063D-15,0.,25.1339312526815,           257P    376
8.88178419700125D-15,6.,0.,-4.44089209850063D-15,0.,0.,              257P    377
-8.88178419700125D-15,6.,-1.11022302462516D-15,52.,0.,               257P    378
-1.11022302462516D-15,52.,6.,5.,57.,0.,5.,57.,6.,105.,57.,0.,        257P    379
105.,57.,6.,110.,52.,0.,110.,52.,6.,110.,18.,0.,110.,18.,6.,         257P    380
105.,13.,0.,105.,13.,6.,95.,13.,0.,95.,13.,6.,90.,18.,0.,90.,        257P    381
18.,6.;                                                              257P    382
504,57,101,257,1,257,1,103,257,1,257,2,105,257,2,257,2,107,257,      259P    383
3,257,3,109,257,3,257,4,111,257,4,257,4,113,257,5,257,5,115,257,     259P    384
5,257,6,117,257,6,257,6,119,257,7,257,8,121,257,7,257,9,123,257,     259P    385
10,257,9,125,257,8,257,10,127,257,11,257,8,129,257,12,257,10,        259P    386
131,257,11,257,12,133,257,11,257,13,135,257,14,257,12,137,257,       259P    387
13,257,14,139,257,15,257,13,141,257,16,257,14,143,257,15,257,16,     259P    388
145,257,17,257,15,147,257,18,257,16,149,257,17,257,18,151,257,       259P    389
17,257,19,153,257,20,257,18,155,257,19,257,20,157,257,19,257,21,     259P    390
159,257,22,257,20,161,257,21,257,22,163,257,21,257,23,165,257,       259P    391
24,257,22,167,257,23,257,24,169,257,25,257,23,171,257,26,257,24,     259P    392
173,257,25,257,26,175,257,25,257,27,177,257,28,257,26,179,257,       259P    393
27,257,28,181,257,29,257,27,183,257,30,257,28,185,257,29,257,30,     259P    394
187,257,29,257,31,189,257,32,257,30,191,257,31,257,32,193,257,       259P    395
33,257,31,195,257,34,257,32,197,257,33,257,34,199,257,35,257,33,     259P    396
201,257,36,257,34,203,257,35,257,36,205,257,37,257,35,207,257,       259P    397
38,257,36,209,257,37,257,38,211,257,7,257,37,213,257,9,257,38;       259P    398
406,1,5HBody1;                                                       261P    399
314,62.7450980392157,62.7450980392157,62.7450980392157,13HSteel      263P    400
- Satin;                                                             263P    401
S      1G      3D    264P    401                                        T      1
