                                                                        S      1
,,9H(Unsaved),17Hcantilerver_model,7Hunknown,7Hunknown,32,38,7,99,15,,  G      1
1.,2,2HMM,1,0.08,15H20231118.135431,0.01,10000.,7Hunknown,7Hunknown,11, G      2
0,;                                                                     G      3
     186       1                                                00000000D      1
     186             -71       1       0                               0D      2
     514       2                                                00010000D      3
     514                       1       1                               0D      4
     510       3                                                00010000D      5
     510             -71       1       1                               0D      6
     510       4                                                00010000D      7
     510             -71       1       1                               0D      8
     510       5                                                00010000D      9
     510             -71       1       1                               0D     10
     510       6                                                00010000D     11
     510             -71       1       1                               0D     12
     510       7                                                00010000D     13
     510             -71       1       1                               0D     14
     510       8                                                00010000D     15
     510             -71       1       1                               0D     16
     508       9                                                00010000D     17
     508                       1       1                               0D     18
     508      10                                                00010000D     19
     508                       1       1                               0D     20
     508      11                                                00010000D     21
     508                       1       1                               0D     22
     508      12                                                00010000D     23
     508                       1       1                               0D     24
     508      13                                                00010000D     25
     508                       1       1                               0D     26
     508      14                                                00010000D     27
     508                       1       1                               0D     28
     126      15                                                00010000D     29
     126       0               3       0                               0D     30
     126      18                                                00010000D     31
     126       0               3       0                               0D     32
     126      21                                                00010000D     33
     126       0               3       0                               0D     34
     126      24                                                00010000D     35
     126       0               3       0                               0D     36
     126      27                                                00010000D     37
     126       0               3       0                               0D     38
     126      30                                                00010000D     39
     126       0               3       0                               0D     40
     126      33                                                00010000D     41
     126       0               3       0                               0D     42
     126      36                                                00010000D     43
     126       0               3       0                               0D     44
     126      39                                                00010000D     45
     126       0               3       0                               0D     46
     126      42                                                00010000D     47
     126       0               3       0                               0D     48
     126      45                                                00010000D     49
     126       0               3       0                               0D     50
     126      48                                                00010000D     51
     126       0               3       0                               0D     52
     128      51                                                00010000D     53
     128       0     -71       5       0                               0D     54
     128      56                                                00010000D     55
     128       0     -71       6       0                               0D     56
     128      62                                                00010000D     57
     128       0     -71       5       0                               0D     58
     128      67                                                00010000D     59
     128       0     -71       5       0                               0D     60
     128      72                                                00010000D     61
     128       0     -71       5       0                               0D     62
     128      77                                                00010000D     63
     128       0     -71       5       0                               0D     64
     502      82                                                00010000D     65
     502                       6       1                               0D     66
     504      88                                                00010001D     67
     504                       3       1                               0D     68
     406      91                                                00000000D     69
     406                       1      15                               0D     70
     314      92                                                00000200D     71
     314                       2       0                               0D     72
186,3,1,0,0,1,69;                                                      1P      1
514,6,5,1,7,1,9,1,11,1,13,1,15,1;                                      3P      2
510,53,1,1,17;                                                         5P      3
510,55,1,1,19;                                                         7P      4
510,57,1,1,21;                                                         9P      5
510,59,1,1,23;                                                        11P      6
510,61,1,1,25;                                                        13P      7
510,63,1,1,27;                                                        15P      8
508,4,0,67,1,0,0,0,67,2,1,0,0,67,3,0,0,0,67,4,0,0;                    17P      9
508,4,0,67,5,0,0,0,67,4,1,0,0,67,6,0,0,0,67,7,0,0;                    19P     10
508,4,0,67,8,0,0,0,67,7,1,0,0,67,9,0,0,0,67,10,0,0;                   21P     11
508,4,0,67,11,0,0,0,67,10,1,0,0,67,12,0,0,0,67,2,0,0;                 23P     12
508,4,0,67,12,1,0,0,67,9,1,0,0,67,6,1,0,0,67,3,1,0;                   25P     13
508,4,0,67,11,1,0,0,67,1,1,0,0,67,5,1,0,0,67,8,1,0;                   27P     14
126,1,1,0,0,1,0,0.,0.,1.9,1.9,1.,1.,-573.690821256039,                29P     15
-11.3816425120773,0.,-573.690821256039,7.61835748792271,0.,0.,        29P     16
1.9,0.,0.,0.;                                                         29P     17
126,1,1,0,0,1,0,0.,0.,0.32,0.32,1.,1.,-573.690821256039,              31P     18
-11.3816425120773,0.,-573.690821256039,-11.3816425120773,3.2,0.,      31P     19
0.32,0.,0.,0.;                                                        31P     20
126,1,1,0,0,1,0,-1.9,-1.9,0.,0.,1.,1.,-573.690821256039,              33P     21
7.61835748792271,3.2,-573.690821256039,-11.3816425120773,3.2,         33P     22
-1.9,0.,0.,0.,0.;                                                     33P     23
126,1,1,0,0,1,0,0.,0.,0.32,0.32,1.,1.,-573.690821256039,              35P     24
7.61835748792271,0.,-573.690821256039,7.61835748792271,3.2,0.,        35P     25
0.32,0.,0.,0.;                                                        35P     26
126,1,1,0,0,1,0,0.,0.,62.5,62.5,1.,1.,-573.690821256039,              37P     27
7.61835748792271,0.,51.3091787439613,7.61835748792271,0.,0.,          37P     28
62.5,0.,0.,0.;                                                        37P     29
126,1,1,0,0,1,0,-62.5,-62.5,0.,0.,1.,1.,51.3091787439613,             39P     30
7.61835748792271,3.2,-573.690821256039,7.61835748792271,3.2,          39P     31
-62.5,0.,0.,0.,0.;                                                    39P     32
126,1,1,0,0,1,0,0.,0.,0.32,0.32,1.,1.,51.3091787439614,               41P     33
7.61835748792271,0.,51.3091787439614,7.61835748792271,3.2,0.,         41P     34
0.32,0.,0.,0.;                                                        41P     35
126,1,1,0,0,1,0,0.,0.,1.9,1.9,1.,1.,51.3091787439614,                 43P     36
7.61835748792271,0.,51.3091787439614,-11.3816425120773,0.,0.,         43P     37
1.9,0.,0.,0.;                                                         43P     38
126,1,1,0,0,1,0,-1.9,-1.9,0.,0.,1.,1.,51.3091787439614,               45P     39
-11.3816425120773,3.2,51.3091787439614,7.61835748792271,3.2,          45P     40
-1.9,0.,0.,0.,0.;                                                     45P     41
126,1,1,0,0,1,0,0.,0.,0.32,0.32,1.,1.,51.3091787439614,               47P     42
-11.3816425120773,0.,51.3091787439614,-11.3816425120773,3.2,0.,       47P     43
0.32,0.,0.,0.;                                                        47P     44
126,1,1,0,0,1,0,0.,0.,62.5,62.5,1.,1.,51.3091787439614,               49P     45
-11.3816425120773,0.,-573.690821256039,-11.3816425120773,0.,0.,       49P     46
62.5,0.,0.,0.;                                                        49P     47
126,1,1,0,0,1,0,-62.5,-62.5,0.,0.,1.,1.,-573.690821256039,            51P     48
-11.3816425120773,3.2,51.3091787439614,-11.3816425120773,3.2,         51P     49
-62.5,0.,0.,0.,0.;                                                    51P     50
128,1,1,1,1,0,0,1,0,0,-0.001,-0.001,1.901,1.901,-0.001,-0.001,        53P     51
0.321,0.321,1.,1.,1.,1.,-573.690821256039,7.62835748792271,           53P     52
-0.01,-573.690821256039,-11.3916425120773,-0.01,                      53P     53
-573.690821256039,7.62835748792271,3.21,-573.690821256039,            53P     54
-11.3916425120773,3.21,-0.001,1.901,-0.001,0.321;                     53P     55
128,1,1,1,1,0,0,1,0,0,-0.00100000000000355,-0.00100000000000355,      55P     56
62.501,62.501,-0.001,-0.001,0.321,0.321,1.,1.,1.,1.,                  55P     57
51.3191787439614,7.61835748792271,-0.01,-573.700821256039,            55P     58
7.61835748792271,-0.01,51.3191787439614,7.61835748792271,3.21,        55P     59
-573.700821256039,7.61835748792271,3.21,-0.00100000000000355,         55P     60
62.501,-0.001,0.321;                                                  55P     61
128,1,1,1,1,0,0,1,0,0,-0.001,-0.001,1.901,1.901,-0.001,-0.001,        57P     62
0.321,0.321,1.,1.,1.,1.,51.3091787439614,-11.3916425120773,           57P     63
-0.01,51.3091787439614,7.62835748792271,-0.01,51.3091787439614,       57P     64
-11.3916425120773,3.21,51.3091787439614,7.62835748792271,3.21,        57P     65
-0.001,1.901,-0.001,0.321;                                            57P     66
128,1,1,1,1,0,0,1,0,0,-0.001,-0.001,62.501,62.501,-0.001,-0.001,      59P     67
0.321,0.321,1.,1.,1.,1.,-573.700821256039,-11.3816425120773,          59P     68
-0.01,51.3191787439613,-11.3816425120773,-0.01,                       59P     69
-573.700821256039,-11.3816425120773,3.21,51.3191787439613,            59P     70
-11.3816425120773,3.21,-0.001,62.501,-0.001,0.321;                    59P     71
128,1,1,1,1,0,0,1,0,0,-31.251,-31.251,31.251,31.251,-0.951,           61P     72
-0.951,0.951,0.951,1.,1.,1.,1.,-573.700821256039,                     61P     73
-11.3916425120773,3.2,51.3191787439614,-11.3916425120773,3.2,         61P     74
-573.700821256039,7.62835748792271,3.2,51.3191787439614,              61P     75
7.62835748792271,3.2,-31.251,31.251,-0.951,0.951;                     61P     76
128,1,1,1,1,0,0,1,0,0,-31.251,-31.251,31.251,31.251,-0.951,           63P     77
-0.951,0.951,0.951,1.,1.,1.,1.,51.3191787439614,                      63P     78
-11.3916425120773,0.,-573.700821256039,-11.3916425120773,0.,          63P     79
51.3191787439614,7.62835748792271,0.,-573.700821256039,               63P     80
7.62835748792271,0.,-31.251,31.251,-0.951,0.951;                      63P     81
502,8,-573.690821256039,-11.3816425120773,0.,-573.690821256039,       65P     82
7.61835748792271,0.,-573.690821256039,-11.3816425120773,3.2,          65P     83
-573.690821256039,7.61835748792271,3.2,51.3091787439614,              65P     84
7.61835748792271,0.,51.3091787439614,7.61835748792271,3.2,            65P     85
51.3091787439614,-11.3816425120773,0.,51.3091787439614,               65P     86
-11.3816425120773,3.2;                                                65P     87
504,12,29,65,1,65,2,31,65,1,65,3,33,65,4,65,3,35,65,2,65,4,37,        67P     88
65,2,65,5,39,65,6,65,4,41,65,5,65,6,43,65,5,65,7,45,65,8,65,6,        67P     89
47,65,7,65,8,49,65,7,65,1,51,65,3,65,8;                               67P     90
406,1,5HBody1;                                                        69P     91
314,62.7450980392157,62.7450980392157,62.7450980392157,13HSteel       71P     92
- Satin;                                                              71P     93
S      1G      3D     72P     93                                        T      1
