**ABCDEFGHIJKLMNOPQRSTUVWXYZabcdefghijklmnopqrstuvwxyz**************************
**PARASOLID !"#$%&'()*+,-./:;<=>?@[\]^_`{|}~0123456789**************************
**PART1;
MC=AMD64;
MC_MODEL=Intel64 Family 6 Model 158 Stepping 10, GenuineIntel;
MC_ID=unknown;
OS=Windows_NT;
OS_RELEASE=unknown;
FRU=Parasolid Version 28.0, build 209,  1-25-2016;
APPL=SOLIDWORKS 2016-2016095;
SITE=;
USER=unknown;
FORMAT=text;
GUISE=transmit;
KEY=Full_Model;
FILE=Full_Model.x_t;
DATE=Wed Sep 27 11:22:03 2023;
**PART2;
SCH=SCH_2800209_28002;
USFLD_SIZE=0;
**PART3;
**END_OF_HEADER*****************************************************************
T51 : TRANSMIT FILE created by modeller version 280020923 SCH_2800209_28002_1300
6200 0 12 30 CCCCCCCCCCCCCDI5 owner1040 0 CCCCCCCCCA13 boundary_mesh1006 0 A16 i
ndex_map_offset0 0 1 dA9 index_map82 0 A17 node_id_index_map82 0 A20 schema_embe
dding_map82 0 A5 child12 0 A14 lowest_node_id0 0 1 dZ1 1059 0 2 0 0 0 0 1e3 1e-8
 0 3 0 1 0 1 1 4 5 6 7 8 9 10 0 0 0 0 0 0 0 70 11 CI9 list_type0 0 1 uI10 notran
smit0 0 1 lCCCDCCDI12 finger_index0 0 1 dI12 finger_block1012 0 CZ2 0 4 T1 0 0 2
 20 1 11 11 13 255 4 94 0 1 0 12 0 0 13 0 50 255 5 89 0 12 14 0 0 +-.006 -.225 .
1 1 1387778780781446e-31 0 -1387778780781446e-31 1 0 30 255 6 93 0 9 15 0 0 +-.0
06 -.275 .1 0 0 -1 29 255 7 72 0 10 16 0 .01 -.275 .01 19 8 CCCCCCCA5 owner12 0
 Z8 28 0 1 13 0 17 V0 16 255 9 77 0 ?18 0 19 6 0 0 1 18 255 10 63 0 20 0 21 7 ?1
 17 255 20 0 22 23 24 10 25 19 0 26 +18 21 168 0 27 10 28 16 ?1 17 27 0 22 24 23
 21 29 30 0 31 -18 28 167 0 25 21 32 33 ?1 29 16 219 0 21 33 7 .01 -.225 .19 29
 33 221 0 28 34 16 .01 -.275 .19 29 34 225 0 32 35 33 -.006 -.275 .19 18 32 166
 0 36 28 37 34 ?1 29 35 770 0 37 38 34 -.006 -.225 .01 18 37 396 0 39 32 40 35 ?
1 29 38 771 0 40 41 35 .01 -.225 .01 18 40 411 0 29 37 42 38 ?1 29 41 773 0 42 4
3 38 -.006 -.275 .01 18 42 410 0 18 40 44 41 ?1 29 43 774 0 44 45 41 -.016 .125
 .01 18 44 460 0 46 42 47 43 ?1 29 45 775 0 47 48 43 624500451351651e-31 .125 .0
1 18 47 462 0 49 44 50 45 ?1 29 48 776 0 50 51 45 624500451351651e-31 .275 .01 1
8 50 416 0 52 47 53 48 ?1 29 51 777 0 53 54 48 .01 .015 .01 18 53 471 0 55 50 56
 51 ?1 29 54 778 0 56 57 51 -.00599999999999993 .015 .19 18 56 464 0 58 53 59 54
 ?1 29 57 779 0 59 60 54 -.016 .275 .19 18 59 457 0 61 56 62 57 ?1 29 60 780 0 6
2 63 57 -.006 -.225 .19 18 62 451 0 64 59 65 60 ?1 29 63 781 0 65 66 60 -.094 .0
15 .01 18 65 434 0 67 62 68 63 ?1 29 66 782 0 68 69 63 -.084 .125 .01 18 68 401
 0 70 65 71 66 ?1 29 69 783 0 71 72 66 -.1 .125 .01 18 71 402 0 73 68 74 69 ?1 2
9 72 784 0 74 75 69 -.084 .275 .01 18 74 400 0 76 71 77 72 ?1 29 75 785 0 77 78
 72 -.094 -.225 .01 18 77 425 0 79 74 80 75 ?1 29 78 786 0 80 81 75 .05 .235 .01
 18 80 414 0 82 77 83 78 ?1 29 81 787 0 83 84 78 .05 .235 0 18 83 421 0 85 80 86
 81 ?1 29 84 788 0 86 87 81 .01 .275 .01 18 86 399 0 88 83 89 84 ?1 29 87 789 0
 89 90 84 .01 .275 0 18 89 423 0 91 86 92 87 ?1 29 90 790 0 93 94 87 .05 -.275 0
 18 93 408 0 95 92 96 90 ?1 29 94 791 0 92 97 90 .05 -.275 .01 18 92 398 0 98 89
 93 94 ?1 29 97 792 0 96 99 94 -.15 .235 .01 18 96 404 0 100 93 101 97 ?1 29 99
 793 0 101 102 97 -.15 .235 0 18 101 424 0 103 96 104 99 ?1 29 102 794 0 104 105
 99 -.11 .275 .01 18 104 403 0 106 101 107 102 ?1 29 105 795 0 107 108 102 -.11
 .275 0 18 107 417 0 109 104 110 105 ?1 29 108 796 0 111 112 105 -.15 -.275 0 18
 111 422 0 113 110 114 108 ?1 29 112 797 0 110 115 108 -.15 -.275 .01 18 110 407
 0 116 107 111 112 ?1 29 115 798 0 114 117 112 -.11 -.225 .01 18 114 430 0 118 1
11 119 115 ?1 29 117 799 0 119 120 115 -.11 -.275 .01 18 119 428 0 121 114 122 1
17 ?1 29 120 800 0 122 123 117 -.094 -.275 .01 18 122 427 0 124 119 125 120 ?1 2
9 123 801 0 125 126 120 -.1 .275 .01 18 125 418 0 127 122 128 123 ?1 29 126 802
 0 128 129 123 -.11 .015 .01 18 128 440 0 130 125 131 126 ?1 29 129 803 0 131 13
2 126 -.11 -.00499999999999994 .01 18 131 438 0 133 128 134 129 ?1 29 132 804 0
 134 135 129 -.094 -.00499999999999993 .01 18 134 436 0 136 131 137 132 ?1 29 13
5 805 0 137 138 132 .05 -.275 .2 18 137 442 0 139 134 140 135 ?1 29 138 806 0 14
0 141 135 .05 .235 .2 18 140 444 0 142 137 143 138 ?1 29 141 807 0 143 144 138 .
01 .275 .2 18 143 446 0 145 140 146 141 ?1 29 144 808 0 146 147 141 -.15 -.275 .
2 18 146 445 0 148 143 149 144 ?1 29 147 809 0 149 150 144 -.15 .235 .2 18 149 4
49 0 151 146 152 147 ?1 29 150 810 0 152 153 147 -.11 .275 .2 18 152 450 0 154 1
49 155 150 ?1 29 153 811 0 155 156 150 .01 .275 .19 18 155 443 0 157 152 158 153
 ?1 29 156 812 0 158 159 153 .05 .235 .19 18 158 412 0 160 155 161 156 ?1 29 159
 813 0 161 162 156 .05 -.275 .19 18 161 406 0 163 158 164 159 ?1 29 162 814 0 16
4 165 159 -.094 -.275 .19 18 164 409 0 166 161 167 162 ?1 29 165 815 0 167 168 1
62 -.094 -.225 .19 18 167 426 0 169 164 170 165 ?1 29 168 816 0 170 171 165 -.11
 -.225 .19 18 170 431 0 172 167 173 168 ?1 29 171 817 0 173 174 168 -.11 -.275 .
19 18 173 429 0 175 170 176 171 ?1 29 174 818 0 176 177 171 -.15 -.275 .19 18 17
6 447 0 178 173 179 174 ?1 29 177 819 0 179 180 174 -.15 .235 .19 18 179 448 0 1
81 176 182 177 ?1 29 180 820 0 182 183 177 -.11 .275 .19 18 182 413 0 184 179 18
5 180 ?1 29 183 821 0 185 186 180 -.1 .275 .19 18 185 419 0 187 182 188 183 ?1 2
9 186 822 0 188 189 183 -.1 .125 .19 18 188 433 0 190 185 191 186 ?1 29 189 823
 0 191 192 186 -.084 .125 .19 18 191 432 0 193 188 194 189 ?1 29 192 824 0 194 1
95 189 -.084 .275 .19 18 194 415 0 196 191 197 192 ?1 29 195 825 0 197 198 192 -
.094 -.00499999999999993 .19 18 197 437 0 199 194 200 195 ?1 29 198 826 0 200 20
1 195 -.11 -.00499999999999994 .19 18 200 439 0 202 197 203 198 ?1 29 201 827 0
 203 204 198 -.094 .015 .19 18 203 435 0 205 200 206 201 ?1 29 204 828 0 206 207
 201 -.11 .015 .19 18 206 441 0 208 203 209 204 ?1 29 207 836 0 209 210 204 4163
336342344335e-32 .275 .19 18 209 463 0 211 206 212 207 ?1 29 210 837 0 212 213 2
07 624500451351651e-31 .125 .19 18 212 461 0 214 209 215 210 ?1 29 213 838 0 215
 216 210 -.016 .125 .19 18 215 459 0 217 212 218 213 ?1 29 216 839 0 218 219 213
 .01 .015 .19 18 218 470 0 220 215 221 216 ?1 29 219 840 0 221 222 216 .01 -.004
99999999999992 .19 18 221 468 0 223 218 224 219 ?1 29 222 841 0 224 225 219 -.00
599999999999993 -.00499999999999992 .19 18 224 466 0 226 221 227 222 ?1 29 225 8
42 0 227 228 222 -.00599999999999993 .015 .01 18 227 465 0 229 224 230 225 ?1 29
 228 843 0 230 231 225 .01 -.00499999999999992 .01 18 230 469 0 232 227 233 228
 ?1 29 231 844 0 233 234 228 -.00599999999999993 -.00499999999999992 .01 18 233
 467 0 235 230 236 231 ?1 29 234 845 0 236 0 231 -.016 .275 .01 18 236 458 0 237
 233 0 234 ?1 17 237 0 238 239 61 236 240 241 0 242 -15 255 238 597 0 61 243 0 1
7 239 0 238 244 237 44 245 246 0 0 +17 61 0 238 237 244 59 247 248 0 240 -17 240
 0 249 196 242 59 237 241 0 250 +16 241 316 0 ?240 251 252 253 0 0 1 17 242 0 24
9 240 254 236 76 255 0 245 -15 249 499 0 242 256 257 17 254 0 249 242 196 74 258
 259 0 260 +17 76 0 261 70 245 74 242 255 0 254 +16 255 274 0 ?76 262 263 264 26
3 262 1 17 245 0 261 76 265 236 239 246 0 0 -15 261 477 0 266 267 0 17 265 0 261
 245 268 44 269 270 0 239 -16 246 382 0 ?239 270 0 271 0 0 1 16 270 384 0 ?269 2
72 246 273 0 0 1 30 271 769 0 246 0 273 0 +-.016 .275 .01 925185853854297e-31 -1
 0 30 273 768 0 270 271 274 0 +-.016 .125 .01 1 0 0 30 274 767 0 272 273 275 0 +
4163336342344335e-32 .275 .01 -1387778780781446e-31 1 0 16 272 386 0 ?276 277 27
0 274 0 0 1 30 275 766 0 277 274 278 0 +-.00599999999999993 .015 .01 86736173798
8404e-31 -1 0 16 277 388 0 ?279 280 272 275 0 0 1 30 278 765 0 280 275 281 0 +-.
00599999999999993 -.00499999999999992 .01 1 0 0 16 280 390 0 ?282 283 277 278 0
 0 1 30 281 764 0 283 278 284 0 +.01 .015 .01 0 1 0 16 283 392 0 ?285 286 280 28
1 0 0 1 30 284 763 0 286 281 287 0 +-.00599999999999993 .015 .01 -1 0 0 16 286 3
94 0 ?288 289 283 284 0 0 1 30 287 762 0 289 284 290 0 +-.00599999999999993 .015
 .19 867361737988404e-31 -1 0 16 289 310 0 ?291 292 286 287 0 0 1 30 290 761 0 2
92 287 293 0 +-.00599999999999993 -.00499999999999992 .1 0 0 1 16 292 389 0 ?294
 295 289 290 0 0 1 30 293 760 0 295 290 296 0 +-.00599999999999993 .015 .1 0 0 1
 16 295 395 0 ?297 298 292 293 0 0 1 30 296 759 0 298 293 299 0 +-.0059999999999
9993 -.00499999999999992 .19 1 0 0 16 298 311 0 ?300 301 295 296 0 0 1 30 299 75
8 0 301 296 302 0 +.01 -.00499999999999992 .1 0 0 1 16 301 391 0 ?303 304 298 29
9 0 0 1 30 302 757 0 304 299 305 0 +.01 .015 .19 0 1 0 16 304 312 0 ?306 307 301
 302 0 0 1 30 305 756 0 307 302 308 0 +.01 .015 .1 0 0 1 16 307 393 0 ?309 310 3
04 305 0 0 1 30 308 755 0 310 305 311 0 +-.00599999999999993 .015 .19 -1 0 0 16
 310 309 0 ?312 248 307 308 0 0 1 30 311 754 0 248 308 313 0 +-.016 .275 .19 925
185853854297e-31 -1 0 16 248 301 0 ?247 252 310 311 0 0 1 30 313 753 0 252 311 2
53 0 +-.016 .125 .1 0 0 1 16 252 383 0 ?244 241 248 313 0 0 1 30 253 752 0 241 3
13 314 0 +-.016 .275 .1 0 0 1 30 314 751 0 251 253 315 0 +-.016 .125 .19 1 0 0 1
6 251 302 0 ?316 317 241 314 0 0 1 30 315 750 0 317 314 318 0 +624500451351651e-
31 .125 .1 0 0 1 16 317 385 0 ?319 320 251 315 0 0 1 30 318 749 0 320 315 321 0
 +4163336342344335e-32 .275 .19 -1387778780781446e-31 1 0 16 320 303 0 ?322 323
 317 318 0 0 1 30 321 748 0 323 318 324 0 +4163336342344335e-32 .275 .1 0 0 1 16
 323 387 0 ?211 325 320 321 0 0 1 30 324 736 0 326 321 327 0 +-.05 .275 .19 -1 0
 0 16 326 327 0 ?328 329 325 324 325 330 1 30 327 735 0 329 324 331 0 +-.05 -.27
5 .19 1 0 0 16 329 291 0 ?332 333 326 327 334 335 1 30 331 734 0 333 327 336 0 +
-.094 .015 .19 1 2523234146875355e-31 0 16 333 358 0 ?337 338 329 331 0 0 1 30 3
36 733 0 338 331 339 0 +-.11 .015 .19 -2523234146875355e-31 1 0 16 338 356 0 ?34
0 341 333 336 0 0 1 30 339 732 0 341 336 342 0 +-.094 -.00499999999999993 .19 -1
 -2523234146875355e-31 0 16 341 354 0 ?343 344 338 339 0 0 1 30 342 731 0 344 33
9 345 0 +-.094 .015 .19 165587240888695e-30 -1 0 16 344 352 0 ?346 347 341 342 0
 0 1 30 345 730 0 347 342 348 0 +-.084 .275 .19 159804829302106e-30 -1 0 16 347
 345 0 ?349 350 344 345 0 0 1 30 348 729 0 350 345 351 0 +-.084 .125 .19 -1 -252
3234146875355e-31 0 16 350 347 0 ?352 353 347 348 0 0 1 30 351 728 0 353 348 354
 0 +-.1 .275 .19 -113545536609391e-30 1 0 16 353 349 0 ?355 330 350 351 0 0 1 31
 255 354 727 0 356 351 357 0 +-.11 .235 .19 0 0 -1 -1 -2523234146875355e-31 0 .0
4 16 356 308 0 ?184 358 330 354 0 0 1 30 357 726 0 358 354 359 0 +-.15 .275 .19
 -1261617073437678e-31 1 0 16 358 307 0 ?360 361 356 357 0 0 1 30 359 725 0 361
 357 362 0 +-.11 -.225 .19 -113545536609391e-30 1 0 16 361 341 0 ?363 364 358 35
9 0 0 1 30 362 724 0 364 359 365 0 +-.094 -.225 .19 1 2523234146875355e-31 0 16
 364 343 0 ?366 367 361 362 0 0 1 30 365 723 0 367 362 368 0 +-.094 -.225 .19 11
3545536609391e-30 -1 0 16 367 338 0 ?369 334 364 365 0 0 1 30 368 722 0 370 365
 371 0 +.05 .275 .19 -1261617073437678e-31 1 0 16 370 360 0 ?372 373 335 368 0 0
 1 31 371 721 0 373 368 374 0 +.01 .235 .19 0 0 1 1 0 0 .04 16 373 361 0 ?157 37
5 370 371 0 0 1 30 374 720 0 375 371 376 0 +-.11 .275 .19 0 0 1 16 375 325 0 ?37
7 378 373 374 0 0 1 31 376 719 0 378 374 379 0 --.11 .235 .2 0 0 -1 -1 -25232341
46875355e-31 0 .04 16 378 368 0 ?380 381 375 376 0 0 1 30 379 718 0 381 376 382
 0 --.15 .235 .19 0 0 1 16 381 373 0 ?383 384 378 379 0 0 1 30 382 717 0 384 379
 385 0 +-.15 .275 .2 -1261617073437678e-31 1 0 16 384 372 0 ?386 387 381 382 0 0
 1 30 385 716 0 387 382 388 0 +-.15 -.275 .19 0 0 1 16 387 374 0 ?389 390 384 38
5 0 0 1 30 388 715 0 390 385 391 0 +-.05 .275 .2 -1 0 0 16 390 366 0 ?392 393 38
7 388 0 0 1 31 391 714 0 393 388 394 0 -.01 .235 .2 0 0 1 1 0 0 .04 16 393 364 0
 ?142 395 390 391 0 0 1 30 394 713 0 395 391 396 0 +.05 .275 .2 -126161707343767
8e-31 1 0 16 395 371 0 ?397 398 393 394 0 0 1 30 396 712 0 398 394 399 0 +-.05 -
.275 .2 1 0 0 16 398 369 0 ?400 401 395 396 0 0 1 30 399 711 0 401 396 402 0 -.0
5 .235 .19 0 0 1 16 401 365 0 ?403 404 398 399 0 0 1 30 402 710 0 404 399 405 0
 +.01 .275 .19 0 0 1 16 404 362 0 ?406 407 401 402 0 0 1 30 405 709 0 407 402 40
8 0 +.05 -.275 .19 0 0 1 16 407 289 0 ?409 410 404 405 0 0 1 30 408 708 0 410 40
5 411 0 +-.094 .015 .01 165587240888695e-30 -1 0 16 410 267 0 ?412 413 407 408 0
 0 1 30 411 707 0 413 408 414 0 +-.094 -.00499999999999993 .01 -1 -2523234146875
355e-31 0 16 413 268 0 ?415 416 410 411 0 0 1 30 414 706 0 416 411 417 0 +-.11 .
015 .01 -2523234146875355e-31 1 0 16 416 269 0 ?418 419 413 414 0 0 1 30 417 705
 0 419 414 420 0 +-.094 .015 .01 1 2523234146875355e-31 0 16 419 266 0 ?421 422
 416 417 0 0 1 30 420 704 0 422 417 423 0 +-.094 .015 .1 0 0 -1 16 422 359 0 ?42
4 425 419 420 0 0 1 30 423 703 0 425 420 426 0 +-.11 .015 .1 0 0 -1 16 425 357 0
 ?427 428 422 423 0 0 1 30 426 702 0 428 423 429 0 +-.11 -.00499999999999994 .1
 0 0 -1 16 428 355 0 ?430 431 425 426 0 0 1 30 429 701 0 431 426 432 0 +-.094 -.
00499999999999993 .1 0 0 -1 16 431 353 0 ?433 434 428 429 0 0 1 30 432 700 0 434
 429 435 0 +-.084 .275 .01 159804829302106e-30 -1 0 16 434 275 0 ?70 436 431 432
 0 0 1 30 435 699 0 436 432 437 0 +-.084 .125 .01 -1 -2523234146875355e-31 0 16
 436 276 0 ?73 438 434 435 0 0 1 30 437 698 0 438 435 439 0 +-.1 .275 .01 -11354
5536609391e-30 1 0 16 438 277 0 ?440 259 436 437 0 0 1 30 439 697 0 259 437 441
 0 +-.084 .275 .1 0 0 -1 16 259 319 0 ?254 442 438 439 0 0 1 30 441 696 0 442 43
9 443 0 +-.1 .275 .1 0 0 -1 16 442 350 0 ?444 445 259 441 0 0 1 30 443 695 0 445
 441 446 0 +-.1 .125 .1 0 0 -1 16 445 348 0 ?447 448 442 443 0 0 1 30 446 694 0
 448 443 449 0 +-.084 .125 .1 0 0 -1 16 448 346 0 ?450 451 445 446 0 0 1 30 449
 693 0 451 446 452 0 +-.094 -.225 .01 113545536609391e-30 -1 0 16 451 282 0 ?453
 454 448 449 0 0 1 30 452 692 0 454 449 455 0 +-.11 -.225 .01 -113545536609391e-
30 1 0 16 454 280 0 ?456 457 451 452 0 0 1 30 455 691 0 457 452 458 0 +-.094 -.2
25 .01 1 2523234146875355e-31 0 16 457 281 0 ?459 460 454 455 0 0 1 30 458 690 0
 460 455 461 0 +-.094 -.225 .1 0 0 -1 16 460 344 0 ?462 463 457 458 0 0 1 30 461
 689 0 463 458 464 0 +-.11 -.225 .1 0 0 -1 16 463 342 0 ?465 466 460 461 0 0 1 3
0 464 688 0 466 461 467 0 +-.11 -.275 .1 0 0 -1 16 466 293 0 ?468 469 463 464 0
 0 1 30 467 687 0 469 464 470 0 +-.094 -.275 .1 0 0 -1 16 469 339 0 ?124 471 466
 467 0 0 1 30 470 686 0 472 467 473 0 +-.15 .275 .01 -1261617073437678e-31 1 0 1
6 472 333 0 ?474 475 471 470 0 0 1 30 473 685 0 471 470 476 0 +-.15 .275 0 -1261
617073437678e-31 1 0 16 471 332 0 ?477 472 469 473 0 0 1 30 476 684 0 475 473 47
8 0 +-.15 -.275 .01 0 0 -1 16 475 295 0 ?479 480 472 476 0 0 1 30 478 683 0 480
 476 481 0 +-.11 .275 .01 0 0 -1 16 480 335 0 ?482 483 475 478 0 0 1 31 481 682
 0 483 478 484 0 --.11 .235 0 0 0 -1 -1 -2523234146875355e-31 0 .04 16 483 336 0
 ?103 485 480 481 0 0 1 30 484 681 0 485 481 486 0 --.15 .235 .01 0 0 -1 16 485
 337 0 ?487 488 483 484 0 0 1 31 486 680 0 488 484 489 0 +-.11 .235 .01 0 0 -1 -
1 -2523234146875355e-31 0 .04 16 488 334 0 ?490 491 485 486 0 0 1 30 489 679 0 4
92 486 264 0 +.05 .275 .01 -1261617073437678e-31 1 0 16 492 271 0 ?493 263 494 4
89 0 0 1 30 264 678 0 262 489 495 0 +-.05 .275 .01 -1 0 0 16 262 273 0 ?496 497
 255 264 255 263 1 30 495 677 0 498 264 499 0 +-.05 -.275 .01 1 0 0 16 498 279 0
 ?500 501 502 495 497 502 1 30 499 676 0 491 495 503 0 +.05 .275 0 -126161707343
7678e-31 1 0 16 491 313 0 ?504 505 488 499 0 0 1 30 503 675 0 505 499 506 0 +-.0
5 .275 0 -1 0 0 16 505 322 0 ?109 494 491 503 0 0 1 30 506 674 0 494 503 507 0 +
-.05 -.275 0 1 0 0 16 494 296 0 ?95 492 505 506 0 0 1 30 507 673 0 501 506 508 0
 +.05 -.275 .01 0 0 -1 16 501 315 0 ?509 510 498 507 0 0 1 30 508 672 0 510 507
 511 0 +.01 .275 .01 0 0 -1 16 510 321 0 ?512 513 501 508 0 0 1 31 511 671 0 513
 508 514 0 -.01 .235 0 0 0 1 1 0 0 .04 16 513 331 0 ?85 515 510 511 0 0 1 30 514
 670 0 515 511 516 0 -.05 .235 .01 0 0 -1 16 515 314 0 ?82 517 513 514 0 0 1 31
 516 669 0 517 514 518 0 +.01 .235 .01 0 0 1 1 0 0 .04 16 517 272 0 ?88 519 515
 516 0 0 1 30 518 217 0 519 516 520 0 +-.006 -.225 .19 1387778780781446e-31 -1 0
 16 519 162 0 ?521 522 517 518 0 0 1 30 520 210 0 522 518 523 0 +.01 -.225 .19 -
1387778780781446e-31 1 0 16 522 164 0 ?524 525 519 520 0 0 1 30 523 207 0 525 52
0 526 0 +-.006 -.225 .19 -1 0 0 16 525 165 0 ?527 528 522 523 0 0 1 30 526 69 0
 528 523 529 0 +-.006 -.225 .01 1387778780781446e-31 -1 0 16 528 57 0 ?530 531 5
25 526 0 0 1 30 529 67 0 531 526 532 0 +.01 -.225 .01 -1387778780781446e-31 1 0
 16 531 49 0 ?23 533 528 529 0 0 1 30 532 66 0 533 529 534 0 +-.006 -.225 .01 -1
 0 0 16 533 45 0 ?535 536 531 532 0 0 1 30 534 90 0 536 532 537 0 +-.006 -.225 .
1 0 0 -1 16 536 74 0 ?39 30 533 534 0 0 1 30 537 91 0 30 534 15 0 +.01 -.225 .1
 0 0 -1 16 30 75 0 ?29 19 536 537 0 0 1 30 15 92 0 19 537 6 0 +.01 -.275 .1 0 0
 -1 16 19 76 0 ?20 9 30 15 0 0 1 17 29 0 538 535 31 40 27 30 0 539 +15 538 78 0
 535 540 0 17 535 0 538 541 29 37 539 533 0 0 +17 31 0 538 29 541 21 527 525 0 5
24 -17 539 0 261 542 266 40 535 533 0 23 -17 542 0 261 98 539 10 23 531 0 0 -17
 266 0 261 539 543 37 530 528 0 535 -17 23 0 22 27 20 40 542 531 0 0 +15 22 80 0
 23 544 0 14 255 544 81 545 ?540 546 22 4 547 -0 0 540 546 17 81 255 1 545 1026
 548 544 549 0 0 550 551 14 540 79 550 ?267 544 538 4 552 -0 0 267 544 17 14 546
 83 553 ?544 12 554 4 14 -0 0 544 12 17 50 547 87 0 544 552 14 0 +.01 -.225 .1 -
1 -1387778780781446e-31 0 1387778780781446e-31 -1 0 13 17 29 0 0 0 0 0 0 8 12 14
 12 85 555 ?546 0 556 4 5 -0 0 546 0 17 81 1 555 1029 548 12 557 0 553 558 559 1
5 556 84 0 530 12 0 17 530 0 556 36 39 42 266 528 0 0 +17 36 0 556 64 530 32 18
 9 0 521 -17 39 0 556 530 64 37 541 536 0 266 +17 64 0 556 39 36 62 521 519 0 54
1 -17 541 0 538 31 535 62 39 536 0 527 -17 527 0 560 521 524 62 31 525 0 0 +15 5
60 490 0 250 561 562 17 521 0 560 563 527 32 64 519 0 564 +17 524 0 560 527 565
 21 24 522 0 0 +17 565 0 560 524 566 28 163 334 0 0 -17 24 0 22 20 27 28 524 522
 0 565 -17 566 0 560 565 160 161 372 370 0 567 -17 163 0 568 409 25 161 565 334
 0 566 +16 334 287 0 ?163 335 367 327 335 329 1 16 335 284 0 ?564 370 334 327 32
9 334 1 17 564 0 554 18 166 32 563 335 0 0 +15 554 853 0 18 546 568 17 18 0 554
 569 564 42 36 9 0 543 +17 166 0 554 564 569 164 124 469 0 369 -17 563 0 560 570
 521 164 564 335 0 0 -17 570 0 560 571 563 167 369 367 0 0 -17 571 0 560 572 570
 170 366 364 0 363 -17 369 0 573 124 169 164 570 367 0 563 +15 573 522 0 79 574
 0 17 124 0 573 79 369 122 166 469 0 453 +17 169 0 573 369 79 167 462 460 0 366
 -17 79 0 573 169 124 77 453 451 0 462 -17 462 0 575 118 366 77 169 460 0 459 +1
7 366 0 575 462 172 167 571 364 0 570 +15 575 530 0 118 576 0 17 172 0 575 366 1
18 170 465 463 0 571 -17 118 0 575 172 462 114 459 457 0 465 -17 465 0 577 121 3
63 114 172 463 0 456 +15 577 526 0 121 578 0 17 121 0 577 175 465 119 456 454 0
 468 -17 363 0 577 465 175 170 572 361 0 0 +17 456 0 261 459 500 114 121 454 0 0
 +17 459 0 261 453 456 77 118 457 0 0 +17 500 0 261 456 579 119 116 498 0 0 +17
 579 0 261 500 100 110 474 472 0 580 -17 116 0 568 479 468 110 500 498 0 579 -15
 568 82 0 26 546 0 17 479 0 568 95 116 111 580 475 0 581 +17 468 0 568 116 332 1
19 175 466 0 500 +17 332 0 568 468 582 173 583 329 0 0 +17 175 0 577 363 121 173
 468 466 0 572 -17 572 0 560 583 571 173 363 361 0 332 -17 583 0 560 360 572 176
 332 329 0 582 -17 360 0 560 184 583 179 178 358 0 383 +17 582 0 568 332 584 176
 389 387 0 0 -17 584 0 568 582 409 146 400 398 0 0 -17 389 0 585 386 178 146 582
 387 0 584 +15 585 573 0 386 586 0 17 386 0 585 383 389 149 148 384 0 380 +17 17
8 0 585 389 383 176 360 358 0 583 -17 383 0 585 178 386 179 151 381 0 0 +17 151
 0 587 154 181 149 383 381 0 386 -15 587 576 0 181 588 0 17 154 0 587 589 151 15
2 380 378 0 392 -17 181 0 587 151 589 179 184 356 0 360 -17 589 0 587 181 154 18
2 377 375 0 590 -17 184 0 560 591 360 182 181 356 0 589 +17 591 0 560 592 184 18
5 590 330 0 0 -17 592 0 560 593 591 188 355 353 0 352 -17 590 0 257 377 187 182
 591 330 0 0 +16 330 323 0 ?590 356 353 324 326 325 1 16 325 317 0 ?196 326 323
 324 330 326 1 17 196 0 249 254 240 194 250 325 0 258 +17 250 0 560 247 594 59 1
96 325 0 0 -17 258 0 595 349 260 194 254 259 0 594 -15 595 534 0 260 596 0 17 34
9 0 595 450 258 191 594 347 0 0 +17 260 0 595 258 450 74 70 434 0 0 -17 594 0 56
0 250 593 194 349 347 0 0 -17 593 0 560 594 592 191 352 350 0 349 -17 352 0 597
 447 193 188 593 350 0 0 +15 597 538 0 598 599 0 17 447 0 597 598 352 71 190 445
 0 0 +17 193 0 597 352 598 191 450 448 0 593 -17 598 0 597 193 447 68 73 436 0 4
50 -17 450 0 595 260 349 68 193 448 0 0 +17 73 0 261 440 70 71 598 436 0 600 +17
 440 0 261 106 73 125 600 438 0 444 +17 70 0 261 73 76 68 260 434 0 598 +17 600
 0 601 190 444 71 440 438 0 447 -15 601 542 0 600 602 0 17 190 0 601 355 600 188
 447 445 0 592 -17 444 0 601 600 355 125 187 442 0 0 +17 355 0 601 444 190 185 5
92 353 0 591 +17 187 0 257 590 127 185 444 442 0 355 -15 257 500 0 52 256 0 17 1
27 0 257 187 603 125 106 263 0 440 -17 603 0 257 127 109 104 482 480 0 0 -17 106
 0 261 100 440 104 127 263 0 490 +16 263 278 0 ?106 255 492 264 262 255 1 17 100
 0 261 579 106 96 490 488 0 487 -17 490 0 604 482 487 104 100 488 0 603 +15 604
 518 0 490 605 0 17 482 0 604 103 490 107 603 480 0 0 +17 487 0 604 490 103 96 6
06 485 0 474 +17 103 0 604 487 482 101 607 483 0 606 +17 606 0 608 581 474 101 4
87 485 0 477 -17 474 0 608 606 580 96 579 472 0 0 +15 608 515 0 581 609 0 17 580
 0 608 474 581 110 479 475 0 0 -17 581 0 608 580 606 111 477 471 0 0 -17 477 0 6
10 607 113 101 581 471 0 0 +15 610 508 0 611 612 0 17 607 0 610 611 477 107 103
 483 0 482 -17 113 0 610 477 613 111 95 494 0 479 -17 613 0 610 113 85 93 504 49
1 0 0 -17 95 0 568 614 479 93 113 494 0 509 +17 614 0 568 26 95 92 509 501 0 615
 -17 509 0 616 504 615 93 614 501 0 613 +15 616 495 0 504 617 0 17 504 0 616 82
 509 83 613 491 0 618 +17 615 0 616 509 82 92 493 492 0 0 -17 82 0 616 615 504 8
0 618 515 0 493 +17 493 0 261 88 98 80 615 492 0 619 +17 88 0 261 496 493 86 619
 517 0 620 +17 98 0 261 493 542 92 26 497 0 614 +17 619 0 621 618 622 80 88 517
 0 0 -15 621 511 0 619 623 0 17 618 0 621 91 619 83 82 515 0 0 -17 622 0 621 619
 91 86 512 510 0 0 -17 91 0 621 622 618 89 85 513 0 512 -17 512 0 257 109 620 89
 622 510 0 611 +17 109 0 257 603 512 107 611 505 0 607 +17 620 0 257 512 52 86 4
96 262 0 622 -17 611 0 610 85 607 89 109 505 0 0 -17 85 0 610 613 611 83 91 513
 0 504 +17 52 0 257 620 328 50 211 323 0 496 -17 496 0 261 268 88 50 620 262 0 2
76 +17 268 0 261 265 496 47 276 272 0 269 -17 276 0 624 211 49 50 268 272 0 0 +1
5 624 607 0 214 625 0 17 211 0 624 214 276 209 52 323 0 322 +17 49 0 624 276 214
 47 319 317 0 268 -17 214 0 624 49 211 212 322 320 0 319 -17 319 0 626 217 269 2
12 49 317 0 316 +15 626 602 0 217 627 0 17 217 0 626 46 319 215 316 251 0 244 -1
7 269 0 626 319 46 47 265 270 0 0 +17 316 0 560 322 247 212 217 251 0 0 +17 322
 0 560 628 316 209 214 320 0 328 +17 247 0 560 316 250 215 61 248 0 0 +17 628 0
 560 160 322 155 328 326 0 629 -17 328 0 257 52 629 209 628 326 0 0 +17 629 0 25
7 328 630 155 406 404 0 0 -17 630 0 257 629 377 143 392 390 0 406 -17 406 0 631
 142 157 143 629 404 0 0 +15 631 565 0 157 632 0 17 142 0 631 403 406 140 145 39
3 0 633 +17 157 0 631 406 403 155 160 373 0 628 +17 403 0 631 157 142 158 633 40
1 0 372 +17 160 0 560 566 628 158 157 373 0 403 -17 633 0 634 139 372 140 403 40
1 0 397 -17 372 0 634 633 567 158 566 370 0 0 +15 634 562 0 139 635 0 17 567 0 6
34 372 139 161 409 407 0 0 -17 139 0 634 567 633 137 397 395 0 400 -17 409 0 568
 584 163 137 567 407 0 0 +17 397 0 636 145 400 140 139 395 0 0 +17 400 0 636 397
 148 137 584 398 0 409 +15 636 569 0 392 637 0 17 148 0 636 400 380 146 386 384
 0 389 -17 380 0 636 148 392 149 154 378 0 0 +17 392 0 636 380 145 152 630 390 0
 377 +17 145 0 636 392 397 143 142 393 0 630 -17 377 0 257 630 590 152 589 375 0
 0 +14 637 566 558 ?586 632 636 4 638 -0 0 586 632 17 81 1 558 1030 548 637 639
 0 555 640 641 14 586 570 640 ?588 637 585 4 642 -0 0 588 637 17 14 632 563 643
 ?637 635 631 4 644 +0 0 637 635 17 50 638 650 0 637 642 644 0 +0 0 .2 0 0 -1 1
 0 0 50 642 651 0 586 645 638 0 +-.15 .275 .19 1 1261617073437678e-31 0 12616170
73437678e-31 -1 0 51 255 644 649 0 632 638 646 0 +.01 .235 .19 0 0 1 .04 -1 0 0
 50 646 648 0 635 644 647 0 +.05 .275 .19 -1 -1261617073437678e-31 0 12616170734
37678e-31 -1 0 14 635 559 648 ?632 649 634 4 646 -0 0 632 649 17 50 647 647 0 64
9 646 650 0 +-.094 .015 .1 2523234146875355e-31 -1 0 0 0 -1 14 649 555 651 ?635
 652 653 4 647 -0 0 635 652 17 50 650 646 0 652 647 654 0 +-.11 .015 .1 1 252323
4146875355e-31 0 0 0 1 14 652 551 655 ?649 656 657 4 650 -0 0 649 656 17 50 654
 645 0 656 650 658 0 +-.094 -.00499999999999993 .1 -2523234146875355e-31 1 0 0 0
 1 14 656 547 659 ?652 660 661 4 654 -0 0 652 660 17 50 658 644 0 660 654 662 0
 +-.094 .015 .1 -1 -165587240888695e-30 0 -165587240888695e-30 1 0 14 660 543 66
3 ?656 602 664 4 658 -0 0 656 602 17 50 662 643 0 602 658 665 0 +-.1 .275 .1 1 1
13545536609391e-30 0 113545536609391e-30 -1 0 14 602 539 666 ?660 599 601 4 662
 -0 0 660 599 17 50 665 642 0 599 662 667 0 +-.084 .125 .1 -2523234146875355e-31
 1 0 0 0 1 14 599 535 668 ?602 596 597 4 665 -0 0 602 596 17 50 667 641 0 596 66
5 669 0 +-.084 .275 .1 -1 -159804829302106e-30 0 -159804829302106e-30 1 0 14 596
 531 670 ?599 576 595 4 667 -0 0 599 576 17 50 669 640 0 576 667 671 0 +-.094 -.
225 .1 2523234146875355e-31 -1 0 0 0 -1 14 576 527 672 ?596 578 575 4 669 -0 0 5
96 578 17 50 671 639 0 578 669 673 0 +-.11 -.225 .1 1 113545536609391e-30 0 1135
45536609391e-30 -1 0 14 578 523 674 ?576 574 577 4 671 -0 0 576 574 17 50 673 63
8 0 574 671 675 0 +-.094 -.225 .1 -1 -113545536609391e-30 0 -113545536609391e-30
 1 0 14 574 519 676 ?578 605 573 4 673 -0 0 578 605 17 50 675 637 0 609 673 677
 0 +-.15 .275 .01 1 1261617073437678e-31 0 1261617073437678e-31 -1 0 14 609 512
 678 ?605 623 608 4 675 -0 0 605 623 17 51 677 636 0 605 675 679 0 +-.11 .235 .0
1 0 0 -1 .04 1 2523234146875355e-31 0 14 605 516 680 ?574 609 604 4 677 +0 0 574
 609 17 50 679 635 0 267 677 681 0 +0 0 .01 0 0 1 1 0 0 14 267 472 682 ?561 540
 683 4 679 +0 0 561 540 17 50 681 634 0 612 679 684 0 +0 0 0 0 0 1 1 0 0 14 612
 505 685 ?623 256 610 4 681 -0 0 623 256 17 50 684 632 0 256 681 686 0 +-.05 .27
5 .01 0 -1 0 0 0 -1 14 256 496 687 ?612 617 249 4 684 -0 0 612 617 17 50 686 631
 0 617 684 688 0 +.05 .275 .01 -1 -1261617073437678e-31 0 1261617073437678e-31 -
1 0 14 617 492 689 ?256 561 616 4 686 -0 0 256 561 17 51 688 630 0 623 686 552 0
 +.01 .235 .01 0 0 -1 .04 -1 0 0 14 623 509 690 ?609 612 621 4 688 +0 0 609 612
 17 50 552 86 0 540 688 547 0 +-.006 -.225 .1 0 -1 0 0 0 -1 81 1 690 1050 548 62
3 691 0 689 692 693 80 255 1 548 694 695 9000 1 1 1 1 1 1 1 1 0 FFFFTFTFFFFFFF1
 81 1 691 922 696 623 0 690 697 698 699 81 1 689 1049 548 617 700 0 687 690 701
 81 1 692 1051 548 588 702 0 690 703 704 82 255 1 693 386859158 14 588 574 692 ?
243 586 587 4 645 +0 0 243 586 17 81 1 702 939 696 588 0 692 705 706 707 81 1 70
3 1052 548 243 706 0 692 708 709 82 1 704 -1240334186 14 243 593 703 ?627 588 23
8 4 710 -0 0 627 588 17 81 1 706 940 696 243 0 703 702 711 712 81 1 708 1053 548
 627 711 0 703 713 714 82 1 709 -1210253162 14 627 598 708 ?625 243 626 4 715 -0
 0 625 243 17 81 1 711 941 696 627 0 708 706 716 717 81 1 713 1054 548 625 716 0
 708 718 719 82 1 714 -1211498346 14 625 603 713 ?720 627 624 4 721 -0 0 720 627
 17 81 1 716 942 696 625 0 713 711 722 723 81 1 718 1055 548 720 722 0 713 724 7
25 82 1 719 -1211694954 14 720 608 718 ?726 625 727 4 728 -0 0 726 625 17 81 1 7
22 943 696 720 0 718 716 729 730 81 1 724 1056 548 726 729 0 718 731 732 82 1 72
5 -1199177578 14 726 613 724 ?733 720 734 4 735 -0 0 733 720 17 81 1 729 944 696
 726 0 724 722 736 737 81 1 731 1057 548 733 736 0 724 738 739 82 1 732 -1200422
762 14 733 618 731 ?740 726 741 4 742 -0 0 740 726 17 81 1 736 945 696 733 0 731
 729 743 744 81 1 738 1058 548 740 743 0 731 745 746 82 1 739 -1200619370 14 740
 623 738 ?0 733 747 4 748 -0 0 0 733 17 81 1 743 946 696 740 0 738 736 0 749 81
 1 745 1059 548 561 750 0 738 0 751 82 1 746 -1200488298 14 561 486 745 ?617 267
 752 4 753 +0 0 617 267 17 81 1 750 918 696 561 0 745 754 700 755 82 1 751 -1195
442026 80 1 696 0 756 8001 0 0 0 0 3 5 0 0 0 FFFFTFTFFFFFFF2 81 1 754 917 696 26
7 0 682 757 750 758 81 1 700 919 696 617 0 689 750 759 760 83 255 3 755 .7921568
62745098 .819607843137255 .933333333333333 81 1 759 920 696 256 0 687 700 697 76
1 83 3 760 .792156862745098 .819607843137255 .933333333333333 81 1 687 1048 548
 256 759 0 685 689 762 81 1 697 921 696 612 0 685 759 691 763 83 3 761 .79215686
2745098 .819607843137255 .933333333333333 81 1 685 1047 548 612 697 0 682 687 76
4 83 3 763 .792156862745098 .819607843137255 .933333333333333 81 1 682 1046 548
 267 754 0 680 685 765 82 1 764 45744278 81 1 680 1045 548 605 766 0 678 682 767
 82 1 765 -1177616234 81 1 766 924 696 605 0 680 698 768 769 81 1 678 1044 548 6
09 698 0 676 680 770 82 1 767 1932787862 81 1 698 923 696 609 0 678 691 766 771
 81 1 676 1043 548 574 768 0 674 678 772 82 1 770 1933050006 81 1 768 925 696 57
4 0 676 766 773 774 81 1 674 1042 548 578 773 0 672 676 775 82 1 772 1942225046
 81 1 773 926 696 578 0 674 768 776 777 81 1 672 1041 548 576 776 0 670 674 778
 82 1 775 1942552726 81 1 776 927 696 576 0 672 773 779 780 81 1 670 1040 548 59
6 779 0 668 672 781 82 1 778 1942814870 81 1 779 928 696 596 0 670 776 782 783 8
1 1 668 1039 548 599 782 0 666 670 784 82 1 781 1953169558 81 1 782 929 696 599
 0 668 779 785 786 81 1 666 1038 548 602 785 0 663 668 787 82 1 784 1953300630 8
1 1 785 930 696 602 0 666 782 788 789 81 1 663 1037 548 660 788 0 659 666 790 82
 1 787 1953497238 81 1 788 931 696 660 0 663 785 791 792 81 1 659 1036 548 656 7
91 0 655 663 793 82 1 790 1964245142 81 1 791 932 696 656 0 659 788 794 795 81 1
 655 1035 548 652 794 0 651 659 796 82 1 793 1964376214 81 1 794 933 696 652 0 6
55 791 797 798 81 1 651 1034 548 649 797 0 648 655 799 82 1 796 1964572822 81 1
 797 934 696 649 0 651 794 800 801 81 1 648 1033 548 635 800 0 643 651 802 82 1
 799 1964834966 81 1 800 935 696 635 0 648 797 803 804 81 1 643 1032 548 632 803
 0 640 648 805 82 1 802 -1240858474 81 1 803 936 696 632 0 643 800 639 806 81 1
 640 1031 548 586 705 0 558 643 807 82 1 805 -1240727402 81 1 705 938 696 586 0
 640 639 702 808 82 1 807 -1240465258 81 1 639 937 696 637 0 558 803 705 809 83
 3 808 .792156862745098 .819607843137255 .933333333333333 83 3 809 .792156862745
098 .819607843137255 .933333333333333 83 3 806 .792156862745098 .819607843137255
 .933333333333333 83 3 804 .792156862745098 .819607843137255 .933333333333333 83
 3 801 .792156862745098 .819607843137255 .933333333333333 83 3 798 .792156862745
098 .819607843137255 .933333333333333 83 3 795 .792156862745098 .819607843137255
 .933333333333333 83 3 792 .792156862745098 .819607843137255 .933333333333333 83
 3 789 .792156862745098 .819607843137255 .933333333333333 83 3 786 .792156862745
098 .819607843137255 .933333333333333 83 3 783 .792156862745098 .819607843137255
 .933333333333333 83 3 780 .792156862745098 .819607843137255 .933333333333333 83
 3 777 .792156862745098 .819607843137255 .933333333333333 83 3 774 .792156862745
098 .819607843137255 .933333333333333 83 3 771 .792156862745098 .819607843137255
 .933333333333333 83 3 769 .792156862745098 .819607843137255 .933333333333333 82
 1 762 45154454 81 1 757 916 696 540 0 550 549 754 810 83 3 758 .792156862745098
 .819607843137255 .933333333333333 81 1 550 1027 548 540 757 0 545 553 811 81 1
 549 915 696 544 0 545 812 757 813 83 3 810 .792156862745098 .819607843137255 .9
33333333333333 81 1 812 914 696 546 0 553 557 549 814 83 3 813 .792156862745098
 .819607843137255 .933333333333333 81 1 553 1028 548 546 812 0 550 555 815 81 1
 557 913 696 12 0 555 0 812 816 83 3 814 .792156862745098 .819607843137255 .9333
33333333333 83 3 816 .792156862745098 .819607843137255 .933333333333333 82 1 815
 24182934 82 1 811 24641686 79 255 15 756 SDL/TYSA_COLOUR15 752 489 0 817 561 56
0 50 753 653 0 561 721 645 0 +0 0 .19 0 0 -1 1 0 0 50 721 658 0 625 715 753 0 +4
163336342344335e-32 .275 .1 -1 -1387778780781446e-31 0 1387778780781446e-31 -1 0
 51 645 652 0 588 753 642 0 +-.11 .235 .19 0 0 1 .04 1 2523234146875355e-31 0 50
 715 659 0 627 710 721 0 +-.016 .125 .1 0 1 0 0 0 -1 50 710 660 0 243 748 715 0
 +-.016 .275 .1 1 925185853854297e-31 0 -925185853854297e-31 1 0 50 748 661 0 74
0 742 710 0 +-.00599999999999993 .015 .1 0 -1 0 0 0 1 50 742 662 0 733 735 748 0
 +.01 .015 .1 -1 0 0 0 0 -1 50 735 663 0 726 728 742 0 +-.00599999999999993 -.00
499999999999992 .1 0 1 0 0 0 -1 50 728 664 0 720 0 735 0 +-.00599999999999993 .0
15 .1 1 867361737988404e-31 0 -867361737988404e-31 1 0 17 817 0 752 818 819 206
 337 333 0 0 -17 818 0 752 820 817 200 340 338 0 0 -17 819 0 752 817 820 203 346
 344 0 337 -17 337 0 653 424 208 203 817 333 0 0 +15 653 558 0 130 649 0 17 424
 0 653 130 337 65 205 422 0 421 +17 208 0 653 337 130 206 427 425 0 340 -17 130
 0 653 208 424 128 421 419 0 427 -17 427 0 657 133 340 128 208 425 0 418 +17 340
 0 657 427 202 206 818 338 0 817 +15 657 554 0 133 652 0 17 202 0 657 340 133 20
0 430 428 0 343 -17 133 0 657 202 427 131 418 416 0 430 -17 430 0 661 136 343 13
1 202 428 0 415 +17 343 0 661 430 199 200 820 341 0 818 +15 661 550 0 136 656 0
 17 199 0 661 343 136 197 433 431 0 346 -17 820 0 752 819 818 197 343 341 0 0 -1
7 136 0 661 199 430 134 415 413 0 433 -17 433 0 664 67 346 134 199 431 0 412 +17
 346 0 664 433 205 197 819 344 0 820 +15 664 546 0 67 660 0 17 205 0 664 346 67
 203 424 422 0 819 -17 67 0 664 205 433 65 412 410 0 424 -17 412 0 821 415 421 1
34 67 410 0 0 +15 821 476 0 421 267 261 17 415 0 821 418 412 131 136 413 0 0 +17
 421 0 821 412 418 65 130 419 0 0 +17 418 0 821 421 415 128 133 416 0 0 +83 3 74
9 .792156862745098 .819607843137255 .933333333333333 15 747 627 0 220 740 0 17 2
20 0 747 55 297 218 312 310 0 309 -17 55 0 747 288 220 53 309 307 0 285 -17 297
 0 747 220 288 56 229 295 0 312 +17 312 0 562 291 306 56 220 310 0 0 +17 309 0 7
41 223 285 218 55 307 0 306 +15 741 622 0 223 733 0 17 223 0 741 232 309 221 306
 304 0 303 -17 285 0 741 309 232 53 822 283 0 823 +17 306 0 562 312 300 218 223
 304 0 0 +15 562 491 0 312 561 0 17 300 0 562 306 291 221 226 298 0 0 +17 291 0
 562 300 312 224 58 289 0 0 +17 226 0 734 235 303 224 300 298 0 294 -15 734 617
 0 226 726 0 17 235 0 734 282 226 233 294 292 0 279 -17 303 0 734 226 282 221 23
2 301 0 300 +17 294 0 727 58 279 224 235 292 0 291 +15 727 612 0 58 720 0 17 58
 0 727 229 294 56 291 289 0 297 -17 279 0 727 294 229 233 824 277 0 825 +17 229
 0 727 279 58 227 297 295 0 288 -17 824 0 683 823 825 227 279 277 0 0 -17 825 0
 683 824 822 233 282 280 0 0 -15 683 475 0 825 267 821 17 822 0 683 825 823 230
 285 283 0 0 -17 282 0 734 303 235 230 825 280 0 822 +17 823 0 683 822 824 53 28
8 286 0 0 -17 288 0 747 297 55 227 823 286 0 824 +17 232 0 741 285 223 230 303 3
01 0 282 -83 3 744 .792156862745098 .819607843137255 .933333333333333 83 3 737 .
792156862745098 .819607843137255 .933333333333333 83 3 730 .792156862745098 .819
607843137255 .933333333333333 83 3 723 .792156862745098 .819607843137255 .933333
333333333 83 3 717 .792156862745098 .819607843137255 .933333333333333 83 3 712 .
792156862745098 .819607843137255 .933333333333333 83 3 707 .792156862745098 .819
607843137255 .933333333333333 82 1 701 45023382 83 3 699 .792156862745098 .81960
7843137255 .933333333333333 79 14 695 SWEntUnchanged82 1 641 -1240596330 17 46 0
 626 269 217 44 244 252 0 265 -17 244 0 238 61 239 215 46 252 0 247 +17 26 0 568
 25 614 10 98 497 0 542 -16 497 270 0 ?98 502 262 495 502 498 1 16 502 283 0 ?54
3 498 497 495 498 497 1 17 543 0 261 266 453 42 569 502 0 530 +17 453 0 261 543
 459 122 79 451 0 569 +17 569 0 554 166 18 122 543 502 0 0 -17 25 0 568 163 26 2
8 20 19 0 24 -82 1 559 24051862 50 14 88 0 546 547 5 0 +-.006 -.275 .1 0 1 0 0 0
 1 82 1 551 24379542 19 13 95 0 1 0 8 4 S0 74 4 CI16 index_map_offset0 0 1 dCCZ2
0 11 2 0 0 745 743 0 0 0 0 0 0 0 0 0 0 0 0 0 0 0 0 0 0 1 0 
