**ABCDEFGHIJKLMNOPQRSTUVWXYZabcdefghijklmnopqrstuvwxyz**************************
**PARASOLID !"#$%&'()*+,-./:;<=>?@[\]^_`{|}~0123456789**************************
**PART1;
MC=AMD64;
MC_MODEL=Intel64 Family 6 Model 158 Stepping 10, GenuineIntel;
MC_ID=unknown;
OS=Windows_NT;
OS_RELEASE=unknown;
FRU=Parasolid Version 28.0, build 209,  1-25-2016;
APPL=SOLIDWORKS 2016-2016095;
SITE=;
USER=unknown;
FORMAT=text;
GUISE=transmit;
KEY=truck;
FILE=truck.x_t;
DATE=Mon Nov 20 14:18:40 2023;
**PART2;
SCH=SCH_2800209_28002;
USFLD_SIZE=0;
**PART3;
**END_OF_HEADER*****************************************************************
T51 : TRANSMIT FILE created by modeller version 280020923 SCH_2800209_28002_1300
6200 0 12 30 CCCCCCCCCCCCCDI5 owner1040 0 CCCCCCCCCA13 boundary_mesh1006 0 A16 i
ndex_map_offset0 0 1 dA9 index_map82 0 A17 node_id_index_map82 0 A20 schema_embe
dding_map82 0 A5 child12 0 A14 lowest_node_id0 0 1 dZ1 786 0 2 0 0 0 0 1e3 1e-8
 0 3 0 1 0 1 1 4 5 6 7 8 9 10 0 0 0 0 0 0 0 70 11 CI9 list_type0 0 1 uI10 notran
smit0 0 1 lCCCDCCDI12 finger_index0 0 1 dI12 finger_block1012 0 CZ2 0 4 T1 0 0 2
 20 1 11 11 13 255 4 219 0 1 0 12 0 0 13 0 51 255 5 210 0 14 15 0 0 --2.3 -.2 -.
6 0 0 1 .4 1 0 0 30 255 6 575 0 9 16 0 0 +-925185853854297e-31 -1 -.5 1 -9251858
53854297e-31 0 29 255 7 557 0 10 17 0 .1 -1 -.6 19 8 CCCCCCCA5 owner12 0 Z8 75 0
 1 13 0 18 V0 16 255 9 573 0 ?19 0 20 6 0 0 1 18 255 10 555 0 21 0 22 7 ?1 17 25
5 21 0 23 24 25 10 26 27 0 28 +18 22 475 0 29 10 30 17 ?1 17 29 0 31 32 33 22 34
 35 0 36 +18 30 376 0 37 22 38 39 ?1 29 17 477 0 22 39 7 -2.3 -1 -.6 29 39 378 0
 30 40 17 .9 -1 .6 29 40 298 0 38 41 39 -1.5 -1 .6 18 38 296 0 42 30 43 40 ?1 29
 41 171 0 44 45 40 -2.3 .2 .6 18 44 154 0 46 47 48 41 ?1 29 45 172 0 48 49 41 -1
.5 .2 .6 18 48 155 0 50 44 51 45 ?1 29 49 173 0 51 52 45 -1.5 .8 .6 18 51 156 0
 53 48 54 49 ?1 29 52 174 0 54 55 49 -1.3 1 .6 18 54 157 0 56 51 57 52 ?1 29 55
 175 0 57 58 52 1.5 1 .6 18 57 158 0 59 54 60 55 ?1 29 58 176 0 60 61 55 1.5 -1
 .6 18 60 159 0 62 57 63 58 ?1 29 61 177 0 63 64 58 -2.7 -1 .6 18 63 160 0 65 60
 66 61 ?1 29 64 178 0 66 67 61 -2.7 -.200000000000003 .6 18 66 161 0 68 63 69 64
 ?1 29 67 73 0 43 70 64 -2.3 .2 -.6 18 43 71 0 71 38 72 67 ?1 29 70 70 0 72 73 6
7 -1.5 .2 -.6 18 72 68 0 74 43 75 70 ?1 29 73 67 0 75 76 70 -1.5 .8 -.6 18 75 65
 0 77 72 78 73 ?1 29 76 64 0 78 79 73 -1.3 1 -.6 18 78 62 0 80 75 81 76 ?1 29 79
 61 0 81 82 76 1.5 1 -.6 18 81 59 0 83 78 84 79 ?1 29 82 58 0 84 85 79 1.5 -1 -.
6 18 84 56 0 86 81 87 82 ?1 29 85 55 0 87 88 82 -2.7 -1 -.6 18 87 53 0 89 84 47
 85 ?1 29 88 52 0 47 90 85 -2.7 -.200000000000003 -.6 18 47 50 0 91 87 44 88 ?1
 29 90 369 0 69 92 88 -2.3 -1 .6 18 69 335 0 93 66 94 90 ?1 29 92 370 0 94 95 90
 -2.3 -1 .5 18 94 334 0 96 69 97 92 ?1 29 95 371 0 97 98 92 -1.5 -1 .5 18 97 337
 0 99 94 100 95 ?1 29 98 449 0 100 101 95 .1 -1 .6 18 100 415 0 102 97 103 98 ?1
 29 101 450 0 103 104 98 .1 -1 .5 18 103 414 0 105 100 106 101 ?1 29 104 451 0 1
06 107 101 .9 -1 .5 18 106 417 0 108 103 109 104 ?1 29 107 551 0 109 110 104 -1.
5 -1 -.6 18 109 517 0 32 106 111 107 ?1 29 110 552 0 111 112 107 -2.3 -1 -.5 18
 111 519 0 113 109 114 110 ?1 29 112 553 0 114 115 110 -1.5 -1 -.5 18 114 516 0
 116 111 117 112 ?1 29 115 631 0 117 118 112 .9 -1 -.6 18 117 597 0 24 114 119 1
15 ?1 29 118 632 0 119 120 115 .1 -1 -.5 18 119 599 0 121 117 122 118 ?1 29 120
 633 0 122 0 118 .9 -1 -.5 18 122 596 0 123 119 0 120 ?1 17 123 0 23 25 24 122 1
24 125 0 126 +15 255 23 612 0 24 127 0 17 25 0 23 21 123 119 126 128 0 26 -17 24
 0 23 123 21 117 28 20 0 124 -17 124 0 129 86 19 117 123 125 0 130 -16 125 591 0
 ?123 131 27 132 0 0 1 17 126 0 133 121 121 122 25 128 0 19 +15 133 620 0 121 13
4 0 17 121 0 133 126 126 119 19 9 0 25 -16 128 593 0 ?126 135 0 136 0 0 1 17 19
 0 129 124 26 122 121 9 0 0 +15 129 578 0 124 12 0 17 26 0 129 19 137 119 21 27
 0 0 -17 137 0 129 26 138 10 139 140 0 0 +16 27 592 0 ?21 125 135 141 0 0 1 16 1
35 588 0 ?142 27 128 143 0 0 1 30 141 627 0 27 136 132 0 -.1 -1 -.7 0 0 1 31 255
 136 628 0 128 143 141 0 +.5 -1 -.5 0 0 1 1 0 0 .4 30 132 626 0 125 141 144 0 +.
9 -1 -.7 0 0 1 31 144 549 0 145 132 146 0 +-1.9 -1 -.7 0 0 1 1 0 0 .4 16 145 508
 0 ?147 35 131 144 0 0 1 31 146 548 0 131 144 148 0 +-1.9 -1 -.5 0 0 1 1 0 0 .4
 16 131 513 0 ?149 145 125 146 0 0 1 30 148 547 0 35 146 150 0 --2.3 -1 -.7 0 0
 1 16 35 512 0 ?29 151 145 148 0 0 1 30 150 546 0 151 148 152 0 +-1.5 -1 -.7 0 0
 1 16 151 511 0 ?116 153 35 150 0 0 1 31 152 447 0 154 150 155 0 +.5 -1 .7 0 0 1
 1 0 0 .4 16 154 411 0 ?156 157 153 152 0 0 1 31 155 446 0 153 152 158 0 +.5 -1
 .5 0 0 1 1 0 0 .4 16 153 408 0 ?159 154 151 155 0 0 1 30 158 445 0 157 155 160
 0 +.9 -1 .7 0 0 -1 16 157 407 0 ?161 162 154 158 0 0 1 30 160 444 0 162 158 163
 0 -.1 -1 .7 0 0 -1 16 162 405 0 ?164 165 157 160 0 0 1 31 163 367 0 166 160 167
 0 +-1.9 -1 .7 0 0 1 1 0 0 .4 16 166 331 0 ?168 169 165 163 0 0 1 31 167 366 0 1
65 163 170 0 +-1.9 -1 .5 0 0 1 1 0 0 .4 16 165 328 0 ?171 166 162 167 0 0 1 30 1
70 365 0 169 167 172 0 +-1.5 -1 .7 0 0 -1 16 169 327 0 ?173 174 166 170 0 0 1 30
 172 364 0 174 170 175 0 --2.3 -1 .7 0 0 -1 16 174 325 0 ?176 177 169 172 0 0 1
 31 175 5 0 178 172 179 0 --2.3 -.2 -.6 0 0 1 1 0 0 .4 16 178 4 0 ?180 181 182 1
75 0 0 1 30 179 10 0 181 175 183 0 +-2.7 0 -.6 0 -1 0 16 181 9 0 ?184 185 178 17
9 0 0 1 30 183 15 0 186 179 187 0 +-925185853854297e-31 -1 -.6 1 -92518585385429
7e-31 0 16 186 14 0 ?188 189 140 183 185 140 1 30 187 25 0 189 183 190 0 +1.5 0
 -.6 0 1 0 16 189 24 0 ?191 192 186 187 0 0 1 30 190 30 0 192 187 193 0 +0 1 -.6
 1 0 0 16 192 29 0 ?83 194 189 190 0 0 1 31 193 35 0 194 190 195 0 --1.3 .8 -.6
 0 0 1 1 0 0 .2 16 194 34 0 ?80 196 192 193 0 0 1 30 195 40 0 196 193 197 0 +-1.
5 0 -.6 0 1 0 16 196 39 0 ?77 198 194 195 0 0 1 30 197 46 0 198 195 199 0 +0 .2
 -.6 1 0 0 16 198 45 0 ?74 200 196 197 0 0 1 31 199 170 0 177 197 201 0 --2.3 -.
2 .6 0 0 1 1 0 0 .4 16 177 148 0 ?202 203 174 199 0 0 1 30 201 169 0 203 199 204
 0 +-2.7 0 .6 0 -1 0 16 203 142 0 ?205 206 177 201 0 0 1 30 204 168 0 207 201 20
8 0 +-925185853854297e-31 -1 .6 1 -925185853854297e-31 0 16 207 131 0 ?209 210 2
11 204 206 211 1 30 208 167 0 210 204 212 0 +1.5 0 .6 0 1 0 16 210 125 0 ?213 21
4 207 208 0 0 1 30 212 166 0 214 208 215 0 +0 1 .6 1 0 0 16 214 119 0 ?216 217 2
10 212 0 0 1 31 215 165 0 217 212 218 0 --1.3 .8 .6 0 0 1 1 0 0 .2 16 217 113 0
 ?56 219 214 215 0 0 1 30 218 164 0 219 215 220 0 +-1.5 0 .6 0 1 0 16 219 106 0
 ?53 182 217 218 0 0 1 30 220 163 0 182 218 221 0 +0 .2 .6 1 0 0 16 182 100 0 ?5
0 178 219 220 0 0 1 30 221 211 0 222 220 223 0 +-2.3 .2 -.6 0 0 1 16 222 179 0 ?
224 225 226 221 0 0 1 30 223 212 0 226 221 227 0 +-1.5 .2 -.6 0 0 1 16 226 180 0
 ?228 222 229 223 0 0 1 30 227 213 0 229 223 230 0 +-1.5 .8 -.6 0 0 1 16 229 181
 0 ?231 226 232 227 0 0 1 30 230 214 0 232 227 233 0 +-1.3 1 -.6 0 0 1 16 232 18
2 0 ?234 229 235 230 0 0 1 30 233 215 0 235 230 236 0 +1.5 1 -.6 0 0 1 16 235 18
3 0 ?59 232 237 233 0 0 1 30 236 216 0 237 233 238 0 +1.5 -1 -.6 0 0 1 16 237 18
4 0 ?239 235 240 236 0 0 1 30 238 217 0 240 236 241 0 +-2.7 -1 -.6 0 0 1 16 240
 185 0 ?65 237 200 238 0 0 1 30 241 218 0 200 238 242 0 +-2.7 -.200000000000003
 -.6 0 0 1 16 200 186 0 ?68 240 198 241 0 0 1 31 242 301 0 225 241 243 0 --1.9 -
1 .6 0 0 1 1 0 0 .4 16 225 299 0 ?244 245 222 242 0 0 1 30 243 313 0 245 242 246
 0 +-925185853854297e-31 -1 .5 -1 925185853854297e-31 0 16 245 311 0 ?247 248 22
5 243 0 0 1 31 246 381 0 248 243 249 0 -.5 -1 .6 0 0 1 1 0 0 .4 16 248 379 0 ?25
0 251 245 246 0 0 1 30 249 393 0 251 246 252 0 +-925185853854297e-31 -1 .5 -1 92
5185853854297e-31 0 16 251 391 0 ?253 254 248 249 0 0 1 31 252 483 0 254 249 255
 0 +-1.9 -1 -.6 0 0 1 1 0 0 .4 16 254 481 0 ?36 256 251 252 0 0 1 30 255 495 0 2
56 252 16 0 +-925185853854297e-31 -1 -.5 1 -925185853854297e-31 0 16 256 493 0 ?
257 20 254 255 0 0 1 31 16 563 0 20 255 6 0 +.5 -1 -.6 0 0 1 1 0 0 .4 16 20 561
 0 ?28 9 256 16 0 0 1 17 28 0 258 139 130 10 24 20 0 137 +15 258 3 0 130 259 0 1
7 139 0 258 36 28 109 137 140 0 0 -17 130 0 258 28 260 117 86 185 0 0 -17 260 0
 258 130 83 84 191 189 0 0 -17 86 0 129 239 124 84 130 185 0 261 +16 185 559 0 ?
86 140 181 183 140 186 1 16 140 479 0 ?137 186 185 183 186 185 1 17 239 0 129 26
2 86 60 261 237 0 263 +17 261 0 264 191 263 84 239 237 0 260 -15 264 195 0 263 2
65 0 17 191 0 264 59 261 81 260 189 0 0 +17 263 0 264 261 59 60 213 210 0 0 -17
 59 0 264 263 191 57 266 235 0 216 +17 213 0 267 268 62 57 263 210 0 0 +15 267 9
9 0 269 270 0 17 268 0 267 271 213 54 216 214 0 0 -17 62 0 267 213 250 60 262 20
6 0 239 +17 250 0 267 62 269 30 102 248 0 262 +17 262 0 129 161 239 30 62 206 0
 0 -16 206 377 0 ?62 211 203 204 211 207 1 16 211 297 0 ?269 207 206 204 207 206
 1 17 269 0 267 250 244 100 272 211 0 0 +17 244 0 267 269 209 38 93 225 0 272 +1
7 272 0 129 173 164 38 269 211 0 0 -17 173 0 129 247 272 97 42 169 0 0 +17 164 0
 129 272 253 100 105 162 0 269 +17 253 0 129 164 161 103 108 251 0 0 +17 105 0 2
73 159 102 103 164 162 0 274 -15 273 429 0 105 275 276 17 159 0 273 37 105 106 2
74 153 0 161 +17 102 0 273 105 37 100 250 248 0 164 -17 274 0 277 108 108 103 15
9 153 0 253 -15 277 438 0 108 278 0 17 108 0 277 274 274 106 253 251 0 159 -14 2
55 278 435 279 ?280 281 277 4 282 -0 0 280 281 18 81 255 1 279 765 283 278 284 0
 0 285 286 14 280 528 285 ?287 278 288 4 289 +0 0 287 278 18 14 281 431 290 ?278
 275 291 4 292 +0 0 278 275 18 50 255 282 442 0 278 292 293 0 +0 0 .5 0 0 1 1 0
 0 13 18 76 0 0 0 0 0 0 8 12 14 12 397 294 ?14 0 129 4 295 +0 0 14 0 18 81 1 294
 768 283 12 296 0 290 297 298 14 14 202 297 ?299 12 300 4 5 -0 0 299 12 18 50 29
5 208 0 12 301 15 0 +-925185853854297e-31 -1 -.6 -925185853854297e-31 -1 0 1 -92
5185853854297e-31 0 50 301 207 0 265 302 295 0 +1.5 0 -.6 1 0 0 0 0 -1 50 15 209
 0 303 295 5 0 +-2.7 0 -.6 -1 0 0 0 0 1 14 303 200 304 ?259 265 305 4 15 +0 0 25
9 265 18 81 1 304 770 283 303 306 0 297 307 308 14 259 1 307 ?270 303 258 4 309
 -0 0 270 303 18 14 265 196 310 ?303 311 264 4 301 +0 0 303 311 18 15 305 199 0
 312 303 0 17 312 0 305 91 65 66 205 203 0 0 -17 91 0 305 184 312 47 68 200 0 31
3 -17 65 0 305 312 184 63 89 240 0 314 +17 205 0 267 209 315 63 312 203 0 0 +17
 209 0 267 244 205 69 314 207 0 0 +17 315 0 267 205 46 66 202 177 0 312 -17 46 0
 267 315 316 44 50 182 0 224 -17 202 0 300 317 68 44 315 177 0 0 +15 300 201 0 2
02 14 0 17 317 0 300 313 202 43 224 222 0 0 -17 68 0 300 202 313 66 91 200 0 315
 +17 313 0 300 68 317 47 180 178 0 318 -17 180 0 258 74 318 43 313 178 0 317 +17
 318 0 258 180 319 47 184 181 0 0 -17 319 0 258 318 36 87 188 186 0 184 -17 184
 0 305 65 91 87 318 181 0 0 +17 36 0 258 319 139 22 32 254 0 188 +17 188 0 129 3
4 89 22 319 186 0 0 +17 34 0 129 257 188 111 29 35 0 0 -17 89 0 129 188 314 87 6
5 240 0 319 -17 314 0 129 89 176 63 209 207 0 205 -17 176 0 129 314 247 69 96 17
4 0 209 +17 247 0 129 176 173 94 99 245 0 0 +17 96 0 320 171 93 94 176 174 0 321
 -15 320 349 0 96 322 323 17 171 0 320 42 96 97 321 165 0 173 +17 93 0 320 96 42
 69 244 225 0 176 -17 321 0 324 99 99 94 171 165 0 247 -15 324 358 0 99 325 0 17
 99 0 324 321 321 97 247 245 0 171 -14 325 355 326 ?275 327 324 4 328 -0 0 275 3
27 18 81 1 326 773 283 325 329 0 310 330 331 14 275 426 330 ?281 325 273 4 293 -
0 0 281 325 18 14 327 351 332 ?325 322 333 4 334 +0 0 325 322 18 50 328 362 0 32
5 334 335 0 +0 0 .5 0 0 1 1 0 0 50 334 363 0 327 293 328 0 +0 0 .7 0 0 1 1 0 0 5
1 335 361 0 322 328 309 0 --1.9 -1 .7 0 0 -1 .4 -1 0 0 14 322 346 336 ?327 270 3
20 4 335 -0 0 327 270 18 50 309 2 0 259 335 337 0 +0 0 -.6 0 0 1 1 0 0 50 337 16
2 0 270 309 338 0 +0 0 .6 0 0 1 1 0 0 14 270 98 339 ?322 259 267 4 337 +0 0 322
 259 18 50 338 203 0 299 337 340 0 +0 .2 -.6 0 -1 0 0 0 -1 14 299 188 341 ?342 1
4 343 4 338 -0 0 342 14 18 50 340 204 0 342 338 344 0 +-1.5 0 -.6 1 0 0 0 0 -1 1
4 342 190 345 ?346 299 347 4 340 -0 0 346 299 18 51 344 205 0 346 340 302 0 --1.
3 .8 -.6 0 0 1 .2 1 0 0 14 346 192 348 ?311 342 349 4 344 -0 0 311 342 18 50 302
 206 0 311 344 301 0 +0 1 -.6 0 -1 0 0 0 -1 14 311 194 350 ?265 346 351 4 302 -0
 0 265 346 18 81 1 350 781 283 311 352 0 348 353 354 15 351 193 0 216 311 0 17 2
16 0 351 266 234 57 268 214 0 213 +17 266 0 351 355 216 81 59 235 0 191 -17 234
 0 351 216 355 54 356 232 0 268 +17 355 0 351 234 266 78 83 192 0 0 -17 356 0 34
9 357 56 78 234 232 0 355 -15 349 191 0 56 346 0 17 357 0 349 231 356 75 80 194
 0 0 -17 56 0 349 356 231 54 271 217 0 234 +17 231 0 349 56 357 51 358 229 0 271
 +17 271 0 267 316 268 51 56 217 0 0 -17 316 0 267 46 271 48 53 219 0 0 -17 53 0
 347 358 228 51 316 219 0 231 +15 347 189 0 53 342 0 17 358 0 347 359 53 75 231
 229 0 357 -17 228 0 347 53 359 48 360 226 0 316 +17 359 0 347 228 358 72 77 196
 0 0 -17 360 0 343 71 50 72 228 226 0 359 -15 343 187 0 50 299 0 17 71 0 343 224
 360 43 74 198 0 180 -17 50 0 343 360 224 48 46 182 0 228 +17 224 0 343 50 71 44
 317 222 0 202 +17 74 0 258 77 180 72 71 198 0 360 +17 77 0 258 80 74 75 359 196
 0 358 +17 80 0 258 83 77 78 357 194 0 356 +17 83 0 258 260 80 81 355 192 0 266
 +80 255 1 283 361 362 9000 1 1 1 1 1 1 1 1 0 FFFFTFTFFFFFFF1 81 1 352 686 363 3
11 0 350 364 365 366 81 1 348 780 283 346 364 0 345 350 367 81 1 353 782 283 287
 368 0 350 369 370 82 255 1 354 278790260 14 287 533 353 ?371 280 372 4 373 +0 0
 371 280 18 81 1 368 698 363 287 0 353 374 375 376 81 1 369 783 283 371 375 0 35
3 377 378 82 1 370 421068918 14 371 537 369 ?127 287 379 4 380 -0 0 127 287 18 8
1 1 375 699 363 371 0 369 368 381 382 81 1 377 784 283 127 381 0 369 383 384 82
 1 378 423034998 14 127 608 377 ?385 371 386 4 387 +0 0 385 371 18 81 1 381 700
 363 127 0 377 375 388 389 81 1 383 785 283 385 388 0 377 390 391 82 1 384 42801
5734 14 385 613 383 ?134 127 392 4 393 +0 0 134 127 18 81 1 388 701 363 385 0 38
3 381 394 395 81 1 390 786 283 134 394 0 383 0 396 82 1 391 425656438 14 134 617
 390 ?0 385 133 4 397 -0 0 0 385 18 81 1 394 702 363 134 0 390 388 0 398 82 1 39
6 427622518 80 1 363 0 399 8001 0 0 0 0 3 5 0 0 0 FFFFTFTFFFFFFF2 83 255 3 398 .
792156862745098 .819607843137255 .933333333333333 79 255 15 399 SDL/TYSA_COLOUR5
0 397 624 0 134 393 387 0 +0 0 -.5 0 0 -1 1 0 0 50 393 625 0 385 0 397 0 +0 0 -.
7 0 0 -1 1 0 0 51 387 623 0 127 397 373 0 +.5 -1 -.7 0 0 1 .4 1 0 0 50 373 545 0
 287 387 380 0 +0 0 -.7 0 0 -1 1 0 0 50 380 544 0 371 373 289 0 +0 0 -.5 0 0 -1
 1 0 0 51 289 543 0 280 380 292 0 +-1.9 -1 -.7 0 0 1 .4 1 0 0 50 292 443 0 281 2
89 282 0 +0 0 .7 0 0 1 1 0 0 83 3 395 .792156862745098 .819607843137255 .9333333
33333333 15 392 616 0 400 385 0 17 400 0 392 400 400 0 142 135 0 0 -17 142 0 386
 142 142 0 400 135 0 0 +15 386 611 0 142 127 23 83 3 389 .792156862745098 .81960
7843137255 .933333333333333 83 3 382 .792156862745098 .819607843137255 .93333333
3333333 15 379 540 0 113 371 0 17 113 0 379 149 149 111 257 256 0 33 -17 149 0 3
79 113 113 114 33 131 0 257 +17 257 0 129 138 34 114 113 256 0 0 +17 33 0 31 29
 116 111 149 131 0 34 -15 31 532 0 32 280 0 17 116 0 31 33 32 114 138 151 0 149
 +17 32 0 31 116 29 109 36 254 0 138 -17 138 0 129 137 257 109 116 151 0 139 -81
 1 374 697 363 280 0 285 284 368 401 83 3 376 .792156862745098 .819607843137255
 .933333333333333 81 1 285 766 283 280 374 0 279 290 402 81 1 284 696 363 278 0
 279 403 374 404 83 3 401 .792156862745098 .819607843137255 .933333333333333 81
 1 403 695 363 281 0 290 405 284 406 83 3 404 .792156862745098 .819607843137255
 .933333333333333 81 1 290 767 283 281 403 0 285 294 407 81 1 405 694 363 275 0
 330 329 403 408 83 3 406 .792156862745098 .819607843137255 .933333333333333 81
 1 330 774 283 275 405 0 326 332 409 81 1 329 693 363 325 0 326 410 405 411 83 3
 408 .792156862745098 .819607843137255 .933333333333333 81 1 410 692 363 327 0 3
32 412 329 413 83 3 411 .792156862745098 .819607843137255 .933333333333333 81 1
 332 775 283 327 410 0 330 336 414 81 1 412 691 363 322 0 336 415 410 416 83 3 4
13 .792156862745098 .819607843137255 .933333333333333 81 1 336 776 283 322 412 0
 332 339 417 81 1 415 690 363 270 0 339 418 412 419 83 3 416 .792156862745098 .8
19607843137255 .933333333333333 81 1 339 777 283 270 415 0 336 341 420 81 1 418
 689 363 259 0 307 306 415 421 83 3 419 .792156862745098 .819607843137255 .93333
3333333333 81 1 307 771 283 259 418 0 304 310 422 81 1 306 688 363 303 0 304 365
 418 423 83 3 421 .792156862745098 .819607843137255 .933333333333333 81 1 365 68
7 363 265 0 310 352 306 424 83 3 423 .792156862745098 .819607843137255 .93333333
3333333 81 1 310 772 283 265 365 0 307 326 425 83 3 424 .792156862745098 .819607
843137255 .933333333333333 82 1 425 279052404 82 1 422 262930550 81 1 341 778 28
3 299 426 0 339 345 427 82 1 420 276299893 81 1 426 683 363 299 0 341 428 429 43
0 81 1 345 779 283 342 429 0 341 348 431 82 1 427 278003828 81 1 429 684 363 342
 0 345 426 364 432 82 1 431 278265972 81 1 364 685 363 346 0 348 429 352 433 83
 3 432 .792156862745098 .819607843137255 .933333333333333 83 3 433 .792156862745
098 .819607843137255 .933333333333333 81 1 428 682 363 14 0 297 296 426 434 83 3
 430 .792156862745098 .819607843137255 .933333333333333 81 1 297 769 283 14 428
 0 294 304 435 81 1 296 681 363 12 0 294 0 428 436 83 3 434 .792156862745098 .81
9607843137255 .933333333333333 83 3 436 .792156862745098 .819607843137255 .93333
3333333333 82 1 435 279511156 82 1 417 347406453 82 1 414 345047157 82 1 409 352
125045 82 1 407 349765749 82 1 402 423428214 15 372 536 0 437 287 0 17 437 0 372
 437 437 0 147 145 0 0 -17 147 0 288 147 147 0 437 145 0 0 +15 288 531 0 147 280
 31 82 1 367 278528116 83 3 366 .792156862745098 .819607843137255 .9333333333333
33 79 14 362 SWEntUnchanged51 293 441 0 275 282 334 0 -.5 -1 .7 0 0 -1 .4 -1 0 0
 15 333 354 0 168 327 0 17 168 0 333 168 168 0 438 166 0 0 +17 438 0 323 438 438
 0 168 166 0 0 -15 323 350 0 438 322 0 82 1 331 347013237 17 42 0 320 93 171 38
 173 169 0 244 -82 1 308 279380084 82 1 298 367984758 15 291 434 0 156 281 0 17
 156 0 291 156 156 0 439 154 0 0 +17 439 0 276 439 439 0 156 154 0 0 -15 276 430
 0 439 275 0 82 1 286 351731829 17 37 0 273 102 159 30 161 157 0 250 -17 161 0 1
29 253 262 106 37 157 0 0 +31 143 629 0 135 0 136 0 +.5 -1 -.7 0 0 1 1 0 0 .4 19
 13 220 0 1 0 8 4 S0 74 4 CI16 index_map_offset0 0 1 dCCZ20 11 2 0 0 390 394 0 0
 0 0 0 0 0 0 0 0 0 0 0 0 0 0 0 0 1 0 
